<?xml version="1.0" encoding="us-ascii" standalone="no"?><svg xmlns="http://www.w3.org/2000/svg" xmlns:xlink="http://www.w3.org/1999/xlink" contentStyleType="text/css" height="939px" preserveAspectRatio="none" style="width:1527px;height:939px;background:#FFFFFF;" version="1.1" viewBox="0 0 1527 939" width="1527px" zoomAndPan="magnify"><defs/><g><!--class Collection--><g id="elem_Collection"><rect codeLine="1" fill="#F1F1F1" height="96.8906" id="Collection" rx="2.5" ry="2.5" style="stroke:#181818;stroke-width:0.5;" width="100" x="543" y="131"/><ellipse cx="558" cy="147" fill="#A9DCDF" rx="11" ry="11" style="stroke:#181818;stroke-width:1.0;"/><path d="M558.1094,142.3438 L556.9531,147.4219 L559.2813,147.4219 L558.1094,142.3438 Z M556.625,140.1094 L559.6094,140.1094 L562.9688,152.5 L560.5156,152.5 L559.75,149.4375 L556.4688,149.4375 L555.7188,152.5 L553.2813,152.5 L556.625,140.1094 Z " fill="#000000"/><text fill="#000000" font-family="sans-serif" font-size="14" font-style="italic" lengthAdjust="spacing" textLength="68" x="572" y="151.8467">Collection</text><line style="stroke:#181818;stroke-width:0.5;" x1="544" x2="642" y1="163" y2="163"/><line style="stroke:#181818;stroke-width:0.5;" x1="544" x2="642" y1="171" y2="171"/><text fill="#000000" font-family="sans-serif" font-size="14" font-style="italic" lengthAdjust="spacing" textLength="49" x="549" y="187.9951">__len__</text><text fill="#000000" font-family="sans-serif" font-size="14" font-style="italic" lengthAdjust="spacing" textLength="50" x="549" y="204.292">__iter__</text><text fill="#000000" font-family="sans-serif" font-size="14" font-style="italic" lengthAdjust="spacing" textLength="87" x="549" y="220.5889">__contains__</text></g><!--class Container--><g id="elem_Container"><rect codeLine="2" fill="#F1F1F1" height="64.2969" id="Container" rx="2.5" ry="2.5" style="stroke:#181818;stroke-width:0.5;" width="99" x="543.5" y="7"/><ellipse cx="558.5" cy="23" fill="#A9DCDF" rx="11" ry="11" style="stroke:#181818;stroke-width:1.0;"/><path d="M558.6094,18.3438 L557.4531,23.4219 L559.7813,23.4219 L558.6094,18.3438 Z M557.125,16.1094 L560.1094,16.1094 L563.4688,28.5 L561.0156,28.5 L560.25,25.4375 L556.9688,25.4375 L556.2188,28.5 L553.7813,28.5 L557.125,16.1094 Z " fill="#000000"/><text fill="#000000" font-family="sans-serif" font-size="14" font-style="italic" lengthAdjust="spacing" textLength="67" x="572.5" y="27.8467">Container</text><line style="stroke:#181818;stroke-width:0.5;" x1="544.5" x2="641.5" y1="39" y2="39"/><line style="stroke:#181818;stroke-width:0.5;" x1="544.5" x2="641.5" y1="47" y2="47"/><text fill="#000000" font-family="sans-serif" font-size="14" font-style="italic" lengthAdjust="spacing" textLength="87" x="549.5" y="63.9951">__contains__</text></g><!--class Hashable--><g id="elem_Hashable"><rect codeLine="3" fill="#F1F1F1" height="64.2969" id="Hashable" rx="2.5" ry="2.5" style="stroke:#181818;stroke-width:0.5;" width="96" x="851" y="7"/><ellipse cx="866" cy="23" fill="#A9DCDF" rx="11" ry="11" style="stroke:#181818;stroke-width:1.0;"/><path d="M866.1094,18.3438 L864.9531,23.4219 L867.2813,23.4219 L866.1094,18.3438 Z M864.625,16.1094 L867.6094,16.1094 L870.9688,28.5 L868.5156,28.5 L867.75,25.4375 L864.4688,25.4375 L863.7188,28.5 L861.2813,28.5 L864.625,16.1094 Z " fill="#000000"/><text fill="#000000" font-family="sans-serif" font-size="14" font-style="italic" lengthAdjust="spacing" textLength="64" x="880" y="27.8467">Hashable</text><line style="stroke:#181818;stroke-width:0.5;" x1="852" x2="946" y1="39" y2="39"/><line style="stroke:#181818;stroke-width:0.5;" x1="852" x2="946" y1="47" y2="47"/><text fill="#000000" font-family="sans-serif" font-size="14" font-style="italic" lengthAdjust="spacing" textLength="62" x="857" y="63.9951">__hash__</text></g><!--class Iterable--><g id="elem_Iterable"><rect codeLine="4" fill="#F1F1F1" height="64.2969" id="Iterable" rx="2.5" ry="2.5" style="stroke:#181818;stroke-width:0.5;" width="83" x="328.5" y="7"/><ellipse cx="343.5" cy="23" fill="#A9DCDF" rx="11" ry="11" style="stroke:#181818;stroke-width:1.0;"/><path d="M343.6094,18.3438 L342.4531,23.4219 L344.7813,23.4219 L343.6094,18.3438 Z M342.125,16.1094 L345.1094,16.1094 L348.4688,28.5 L346.0156,28.5 L345.25,25.4375 L341.9688,25.4375 L341.2188,28.5 L338.7813,28.5 L342.125,16.1094 Z " fill="#000000"/><text fill="#000000" font-family="sans-serif" font-size="14" font-style="italic" lengthAdjust="spacing" textLength="51" x="357.5" y="27.8467">Iterable</text><line style="stroke:#181818;stroke-width:0.5;" x1="329.5" x2="410.5" y1="39" y2="39"/><line style="stroke:#181818;stroke-width:0.5;" x1="329.5" x2="410.5" y1="47" y2="47"/><text fill="#000000" font-family="sans-serif" font-size="14" font-style="italic" lengthAdjust="spacing" textLength="50" x="334.5" y="63.9951">__iter__</text></g><!--class Iterator--><g id="elem_Iterator"><rect codeLine="5" fill="#F1F1F1" height="80.5938" id="Iterator" rx="2.5" ry="2.5" style="stroke:#181818;stroke-width:0.5;" width="81" x="109.5" y="139"/><ellipse cx="124.5" cy="155" fill="#A9DCDF" rx="11" ry="11" style="stroke:#181818;stroke-width:1.0;"/><path d="M124.6094,150.3438 L123.4531,155.4219 L125.7813,155.4219 L124.6094,150.3438 Z M123.125,148.1094 L126.1094,148.1094 L129.4688,160.5 L127.0156,160.5 L126.25,157.4375 L122.9688,157.4375 L122.2188,160.5 L119.7813,160.5 L123.125,148.1094 Z " fill="#000000"/><text fill="#000000" font-family="sans-serif" font-size="14" font-style="italic" lengthAdjust="spacing" textLength="49" x="138.5" y="159.8467">Iterator</text><line style="stroke:#181818;stroke-width:0.5;" x1="110.5" x2="189.5" y1="171" y2="171"/><line style="stroke:#181818;stroke-width:0.5;" x1="110.5" x2="189.5" y1="179" y2="179"/><text fill="#000000" font-family="sans-serif" font-size="14" font-style="italic" lengthAdjust="spacing" textLength="58" x="115.5" y="195.9951">__next__</text><text fill="#000000" font-family="sans-serif" font-size="14" lengthAdjust="spacing" textLength="50" x="115.5" y="212.292">__iter__</text></g><!--class Reversible--><g id="elem_Reversible"><rect codeLine="6" fill="#F1F1F1" height="64.2969" id="Reversible" rx="2.5" ry="2.5" style="stroke:#181818;stroke-width:0.5;" width="104" x="318" y="147.5"/><ellipse cx="333" cy="163.5" fill="#A9DCDF" rx="11" ry="11" style="stroke:#181818;stroke-width:1.0;"/><path d="M333.1094,158.8438 L331.9531,163.9219 L334.2813,163.9219 L333.1094,158.8438 Z M331.625,156.6094 L334.6094,156.6094 L337.9688,169 L335.5156,169 L334.75,165.9375 L331.4688,165.9375 L330.7188,169 L328.2813,169 L331.625,156.6094 Z " fill="#000000"/><text fill="#000000" font-family="sans-serif" font-size="14" font-style="italic" lengthAdjust="spacing" textLength="72" x="347" y="168.3467">Reversible</text><line style="stroke:#181818;stroke-width:0.5;" x1="319" x2="421" y1="179.5" y2="179.5"/><line style="stroke:#181818;stroke-width:0.5;" x1="319" x2="421" y1="187.5" y2="187.5"/><text fill="#000000" font-family="sans-serif" font-size="14" font-style="italic" lengthAdjust="spacing" textLength="89" x="324" y="204.4951">__reversed__</text></g><!--class Generator--><g id="elem_Generator"><rect codeLine="7" fill="#F1F1F1" height="129.4844" id="Generator" rx="2.5" ry="2.5" style="stroke:#181818;stroke-width:0.5;" width="102" x="7" y="361.5"/><ellipse cx="22" cy="377.5" fill="#A9DCDF" rx="11" ry="11" style="stroke:#181818;stroke-width:1.0;"/><path d="M22.1094,372.8438 L20.9531,377.9219 L23.2813,377.9219 L22.1094,372.8438 Z M20.625,370.6094 L23.6094,370.6094 L26.9688,383 L24.5156,383 L23.75,379.9375 L20.4688,379.9375 L19.7188,383 L17.2813,383 L20.625,370.6094 Z " fill="#000000"/><text fill="#000000" font-family="sans-serif" font-size="14" font-style="italic" lengthAdjust="spacing" textLength="70" x="36" y="382.3467">Generator</text><line style="stroke:#181818;stroke-width:0.5;" x1="8" x2="108" y1="393.5" y2="393.5"/><line style="stroke:#181818;stroke-width:0.5;" x1="8" x2="108" y1="401.5" y2="401.5"/><text fill="#000000" font-family="sans-serif" font-size="14" font-style="italic" lengthAdjust="spacing" textLength="45" x="13" y="418.4951">send()</text><text fill="#000000" font-family="sans-serif" font-size="14" font-style="italic" lengthAdjust="spacing" textLength="49" x="13" y="434.792">throw()</text><text fill="#000000" font-family="sans-serif" font-size="14" lengthAdjust="spacing" textLength="47" x="13" y="451.0889">close()</text><text fill="#000000" font-family="sans-serif" font-size="14" lengthAdjust="spacing" textLength="50" x="13" y="467.3857">__iter__</text><text fill="#000000" font-family="sans-serif" font-size="14" lengthAdjust="spacing" textLength="58" x="13" y="483.6826">__next__</text></g><!--class Sized--><g id="elem_Sized"><rect codeLine="8" fill="#F1F1F1" height="64.2969" id="Sized" rx="2.5" ry="2.5" style="stroke:#181818;stroke-width:0.5;" width="70" x="746" y="7"/><ellipse cx="761" cy="23" fill="#A9DCDF" rx="11" ry="11" style="stroke:#181818;stroke-width:1.0;"/><path d="M761.1094,18.3438 L759.9531,23.4219 L762.2813,23.4219 L761.1094,18.3438 Z M759.625,16.1094 L762.6094,16.1094 L765.9688,28.5 L763.5156,28.5 L762.75,25.4375 L759.4688,25.4375 L758.7188,28.5 L756.2813,28.5 L759.625,16.1094 Z " fill="#000000"/><text fill="#000000" font-family="sans-serif" font-size="14" font-style="italic" lengthAdjust="spacing" textLength="38" x="775" y="27.8467">Sized</text><line style="stroke:#181818;stroke-width:0.5;" x1="747" x2="815" y1="39" y2="39"/><line style="stroke:#181818;stroke-width:0.5;" x1="747" x2="815" y1="47" y2="47"/><text fill="#000000" font-family="sans-serif" font-size="14" font-style="italic" lengthAdjust="spacing" textLength="49" x="752" y="63.9951">__len__</text></g><!--class Callable--><g id="elem_Callable"><rect codeLine="9" fill="#F1F1F1" height="64.2969" id="Callable" rx="2.5" ry="2.5" style="stroke:#181818;stroke-width:0.5;" width="85" x="982.5" y="7"/><ellipse cx="997.5" cy="23" fill="#A9DCDF" rx="11" ry="11" style="stroke:#181818;stroke-width:1.0;"/><path d="M997.6094,18.3438 L996.4531,23.4219 L998.7813,23.4219 L997.6094,18.3438 Z M996.125,16.1094 L999.1094,16.1094 L1002.4688,28.5 L1000.0156,28.5 L999.25,25.4375 L995.9688,25.4375 L995.2188,28.5 L992.7813,28.5 L996.125,16.1094 Z " fill="#000000"/><text fill="#000000" font-family="sans-serif" font-size="14" font-style="italic" lengthAdjust="spacing" textLength="53" x="1011.5" y="27.8467">Callable</text><line style="stroke:#181818;stroke-width:0.5;" x1="983.5" x2="1066.5" y1="39" y2="39"/><line style="stroke:#181818;stroke-width:0.5;" x1="983.5" x2="1066.5" y1="47" y2="47"/><text fill="#000000" font-family="sans-serif" font-size="14" font-style="italic" lengthAdjust="spacing" textLength="50" x="988.5" y="63.9951">__call__</text></g><!--class Sequence--><g id="elem_Sequence"><rect codeLine="11" fill="#F1F1F1" height="162.0781" id="Sequence" rx="2.5" ry="2.5" style="stroke:#181818;stroke-width:0.5;" width="103" x="318.5" y="345"/><ellipse cx="333.5" cy="361" fill="#A9DCDF" rx="11" ry="11" style="stroke:#181818;stroke-width:1.0;"/><path d="M333.6094,356.3438 L332.4531,361.4219 L334.7813,361.4219 L333.6094,356.3438 Z M332.125,354.1094 L335.1094,354.1094 L338.4688,366.5 L336.0156,366.5 L335.25,363.4375 L331.9688,363.4375 L331.2188,366.5 L328.7813,366.5 L332.125,354.1094 Z " fill="#000000"/><text fill="#000000" font-family="sans-serif" font-size="14" font-style="italic" lengthAdjust="spacing" textLength="71" x="347.5" y="365.8467">Sequence</text><line style="stroke:#181818;stroke-width:0.5;" x1="319.5" x2="420.5" y1="377" y2="377"/><line style="stroke:#181818;stroke-width:0.5;" x1="319.5" x2="420.5" y1="385" y2="385"/><text fill="#000000" font-family="sans-serif" font-size="14" font-style="italic" lengthAdjust="spacing" textLength="81" x="324.5" y="401.9951">__getitem__</text><text fill="#000000" font-family="sans-serif" font-size="14" font-style="italic" lengthAdjust="spacing" textLength="49" x="324.5" y="418.292">__len__</text><text fill="#000000" font-family="sans-serif" font-size="14" lengthAdjust="spacing" textLength="87" x="324.5" y="434.5889">__contains__</text><text fill="#000000" font-family="sans-serif" font-size="14" lengthAdjust="spacing" textLength="50" x="324.5" y="450.8857">__iter__</text><text fill="#000000" font-family="sans-serif" font-size="14" lengthAdjust="spacing" textLength="89" x="324.5" y="467.1826">__reversed__</text><text fill="#000000" font-family="sans-serif" font-size="14" lengthAdjust="spacing" textLength="47" x="324.5" y="483.4795">index()</text><text fill="#000000" font-family="sans-serif" font-size="14" lengthAdjust="spacing" textLength="50" x="324.5" y="499.7764">count()</text></g><!--class MutableSequence--><g id="elem_MutableSequence"><rect codeLine="12" fill="#F1F1F1" height="308.75" id="MutableSequence" rx="2.5" ry="2.5" style="stroke:#181818;stroke-width:0.5;" width="158" x="125" y="624"/><ellipse cx="140" cy="640" fill="#A9DCDF" rx="11" ry="11" style="stroke:#181818;stroke-width:1.0;"/><path d="M140.1094,635.3438 L138.9531,640.4219 L141.2813,640.4219 L140.1094,635.3438 Z M138.625,633.1094 L141.6094,633.1094 L144.9688,645.5 L142.5156,645.5 L141.75,642.4375 L138.4688,642.4375 L137.7188,645.5 L135.2813,645.5 L138.625,633.1094 Z " fill="#000000"/><text fill="#000000" font-family="sans-serif" font-size="14" font-style="italic" lengthAdjust="spacing" textLength="126" x="154" y="644.8467">MutableSequence</text><line style="stroke:#181818;stroke-width:0.5;" x1="126" x2="282" y1="656" y2="656"/><line style="stroke:#181818;stroke-width:0.5;" x1="126" x2="282" y1="664" y2="664"/><text fill="#000000" font-family="sans-serif" font-size="14" font-style="italic" lengthAdjust="spacing" textLength="81" x="131" y="680.9951">__getitem__</text><text fill="#000000" font-family="sans-serif" font-size="14" font-style="italic" lengthAdjust="spacing" textLength="80" x="131" y="697.292">__setitem__</text><text fill="#000000" font-family="sans-serif" font-size="14" font-style="italic" lengthAdjust="spacing" textLength="79" x="131" y="713.5889">__delitem__</text><text fill="#000000" font-family="sans-serif" font-size="14" font-style="italic" lengthAdjust="spacing" textLength="67" x="131" y="729.8857">__insert__</text><text fill="#000000" font-family="sans-serif" font-size="14" font-style="italic" lengthAdjust="spacing" textLength="49" x="131" y="746.1826">__len__</text><text fill="#000000" font-family="sans-serif" font-size="14" lengthAdjust="spacing" textLength="87" x="131" y="762.4795">__contains__</text><text fill="#000000" font-family="sans-serif" font-size="14" lengthAdjust="spacing" textLength="50" x="131" y="778.7764">__iter__</text><text fill="#000000" font-family="sans-serif" font-size="14" lengthAdjust="spacing" textLength="89" x="131" y="795.0732">__reversed__</text><text fill="#000000" font-family="sans-serif" font-size="14" lengthAdjust="spacing" textLength="47" x="131" y="811.3701">index()</text><text fill="#000000" font-family="sans-serif" font-size="14" lengthAdjust="spacing" textLength="50" x="131" y="827.667">count()</text><text fill="#000000" font-family="sans-serif" font-size="14" lengthAdjust="spacing" textLength="63" x="131" y="843.9639">append()</text><text fill="#000000" font-family="sans-serif" font-size="14" lengthAdjust="spacing" textLength="62" x="131" y="860.2607">reverse()</text><text fill="#000000" font-family="sans-serif" font-size="14" lengthAdjust="spacing" textLength="58" x="131" y="876.5576">extend()</text><text fill="#000000" font-family="sans-serif" font-size="14" lengthAdjust="spacing" textLength="37" x="131" y="892.8545">pop()</text><text fill="#000000" font-family="sans-serif" font-size="14" lengthAdjust="spacing" textLength="62" x="131" y="909.1514">remove()</text><text fill="#000000" font-family="sans-serif" font-size="14" lengthAdjust="spacing" textLength="57" x="131" y="925.4482">__iadd__</text></g><!--class ByteString--><g id="elem_ByteString"><rect codeLine="13" fill="#F1F1F1" height="80.5938" id="ByteString" rx="2.5" ry="2.5" style="stroke:#181818;stroke-width:0.5;" width="103" x="318.5" y="738"/><ellipse cx="333.5" cy="754" fill="#A9DCDF" rx="11" ry="11" style="stroke:#181818;stroke-width:1.0;"/><path d="M333.6094,749.3438 L332.4531,754.4219 L334.7813,754.4219 L333.6094,749.3438 Z M332.125,747.1094 L335.1094,747.1094 L338.4688,759.5 L336.0156,759.5 L335.25,756.4375 L331.9688,756.4375 L331.2188,759.5 L328.7813,759.5 L332.125,747.1094 Z " fill="#000000"/><text fill="#000000" font-family="sans-serif" font-size="14" font-style="italic" lengthAdjust="spacing" textLength="71" x="347.5" y="758.8467">ByteString</text><line style="stroke:#181818;stroke-width:0.5;" x1="319.5" x2="420.5" y1="770" y2="770"/><line style="stroke:#181818;stroke-width:0.5;" x1="319.5" x2="420.5" y1="778" y2="778"/><text fill="#000000" font-family="sans-serif" font-size="14" font-style="italic" lengthAdjust="spacing" textLength="81" x="324.5" y="794.9951">__getitem__</text><text fill="#000000" font-family="sans-serif" font-size="14" font-style="italic" lengthAdjust="spacing" textLength="49" x="324.5" y="811.292">__len__</text></g><!--class Set--><g id="elem_Set"><rect codeLine="16" fill="#F1F1F1" height="276.1563" id="Set" rx="2.5" ry="2.5" style="stroke:#181818;stroke-width:0.5;" width="99" x="645.5" y="288"/><ellipse cx="680.3" cy="304" fill="#A9DCDF" rx="11" ry="11" style="stroke:#181818;stroke-width:1.0;"/><path d="M680.4094,299.3438 L679.2531,304.4219 L681.5813,304.4219 L680.4094,299.3438 Z M678.925,297.1094 L681.9094,297.1094 L685.2688,309.5 L682.8156,309.5 L682.05,306.4375 L678.7688,306.4375 L678.0188,309.5 L675.5813,309.5 L678.925,297.1094 Z " fill="#000000"/><text fill="#000000" font-family="sans-serif" font-size="14" font-style="italic" lengthAdjust="spacing" textLength="23" x="698.7" y="308.8467">Set</text><line style="stroke:#181818;stroke-width:0.5;" x1="646.5" x2="743.5" y1="320" y2="320"/><line style="stroke:#181818;stroke-width:0.5;" x1="646.5" x2="743.5" y1="328" y2="328"/><text fill="#000000" font-family="sans-serif" font-size="14" font-style="italic" lengthAdjust="spacing" textLength="49" x="651.5" y="344.9951">__len__</text><text fill="#000000" font-family="sans-serif" font-size="14" font-style="italic" lengthAdjust="spacing" textLength="50" x="651.5" y="361.292">__iter__</text><text fill="#000000" font-family="sans-serif" font-size="14" font-style="italic" lengthAdjust="spacing" textLength="87" x="651.5" y="377.5889">__contains__</text><text fill="#000000" font-family="sans-serif" font-size="14" lengthAdjust="spacing" textLength="40" x="651.5" y="393.8857">__le__</text><text fill="#000000" font-family="sans-serif" font-size="14" lengthAdjust="spacing" textLength="36" x="651.5" y="410.1826">__lt__</text><text fill="#000000" font-family="sans-serif" font-size="14" lengthAdjust="spacing" textLength="46" x="651.5" y="426.4795">__eq__</text><text fill="#000000" font-family="sans-serif" font-size="14" lengthAdjust="spacing" textLength="46" x="651.5" y="442.7764">__ne__</text><text fill="#000000" font-family="sans-serif" font-size="14" lengthAdjust="spacing" textLength="42" x="651.5" y="459.0732">__gt__</text><text fill="#000000" font-family="sans-serif" font-size="14" lengthAdjust="spacing" textLength="46" x="651.5" y="475.3701">__ge__</text><text fill="#000000" font-family="sans-serif" font-size="14" lengthAdjust="spacing" textLength="54" x="651.5" y="491.667">__and__</text><text fill="#000000" font-family="sans-serif" font-size="14" lengthAdjust="spacing" textLength="42" x="651.5" y="507.9639">__or__</text><text fill="#000000" font-family="sans-serif" font-size="14" lengthAdjust="spacing" textLength="54" x="651.5" y="524.2607">__sub__</text><text fill="#000000" font-family="sans-serif" font-size="14" lengthAdjust="spacing" textLength="49" x="651.5" y="540.5576">__xor__</text><text fill="#000000" font-family="sans-serif" font-size="14" lengthAdjust="spacing" textLength="70" x="651.5" y="556.8545">isdisjoint()</text></g><!--class MutableSet--><g id="elem_MutableSet"><rect codeLine="17" fill="#F1F1F1" height="243.5625" id="MutableSet" rx="2.5" ry="2.5" style="stroke:#181818;stroke-width:0.5;" width="110" x="638" y="656.5"/><ellipse cx="653" cy="672.5" fill="#A9DCDF" rx="11" ry="11" style="stroke:#181818;stroke-width:1.0;"/><path d="M653.1094,667.8438 L651.9531,672.9219 L654.2813,672.9219 L653.1094,667.8438 Z M651.625,665.6094 L654.6094,665.6094 L657.9688,678 L655.5156,678 L654.75,674.9375 L651.4688,674.9375 L650.7188,678 L648.2813,678 L651.625,665.6094 Z " fill="#000000"/><text fill="#000000" font-family="sans-serif" font-size="14" font-style="italic" lengthAdjust="spacing" textLength="78" x="667" y="677.3467">MutableSet</text><line style="stroke:#181818;stroke-width:0.5;" x1="639" x2="747" y1="688.5" y2="688.5"/><line style="stroke:#181818;stroke-width:0.5;" x1="639" x2="747" y1="696.5" y2="696.5"/><text fill="#000000" font-family="sans-serif" font-size="14" font-style="italic" lengthAdjust="spacing" textLength="49" x="644" y="713.4951">__len__</text><text fill="#000000" font-family="sans-serif" font-size="14" font-style="italic" lengthAdjust="spacing" textLength="50" x="644" y="729.792">__iter__</text><text fill="#000000" font-family="sans-serif" font-size="14" font-style="italic" lengthAdjust="spacing" textLength="87" x="644" y="746.0889">__contains__</text><text fill="#000000" font-family="sans-serif" font-size="14" font-style="italic" lengthAdjust="spacing" textLength="36" x="644" y="762.3857">add()</text><text fill="#000000" font-family="sans-serif" font-size="14" font-style="italic" lengthAdjust="spacing" textLength="60" x="644" y="778.6826">discard()</text><text fill="#000000" font-family="sans-serif" font-size="14" lengthAdjust="spacing" textLength="43" x="644" y="794.9795">clear()</text><text fill="#000000" font-family="sans-serif" font-size="14" lengthAdjust="spacing" textLength="37" x="644" y="811.2764">pop()</text><text fill="#000000" font-family="sans-serif" font-size="14" lengthAdjust="spacing" textLength="62" x="644" y="827.5732">remove()</text><text fill="#000000" font-family="sans-serif" font-size="14" lengthAdjust="spacing" textLength="45" x="644" y="843.8701">__ior__</text><text fill="#000000" font-family="sans-serif" font-size="14" lengthAdjust="spacing" textLength="57" x="644" y="860.167">__iand__</text><text fill="#000000" font-family="sans-serif" font-size="14" lengthAdjust="spacing" textLength="52" x="644" y="876.4639">__ixor__</text><text fill="#000000" font-family="sans-serif" font-size="14" lengthAdjust="spacing" textLength="57" x="644" y="892.7607">__isub__</text></g><!--class Mapping--><g id="elem_Mapping"><rect codeLine="21" fill="#F1F1F1" height="48" id="Mapping" rx="2.5" ry="2.5" style="stroke:#181818;stroke-width:0.5;" width="91" x="497.5" y="402"/><ellipse cx="512.5" cy="418" fill="#A9DCDF" rx="11" ry="11" style="stroke:#181818;stroke-width:1.0;"/><path d="M512.6094,413.3438 L511.4531,418.4219 L513.7813,418.4219 L512.6094,413.3438 Z M511.125,411.1094 L514.1094,411.1094 L517.4688,423.5 L515.0156,423.5 L514.25,420.4375 L510.9688,420.4375 L510.2188,423.5 L507.7813,423.5 L511.125,411.1094 Z " fill="#000000"/><text fill="#000000" font-family="sans-serif" font-size="14" font-style="italic" lengthAdjust="spacing" textLength="59" x="526.5" y="422.8467">Mapping</text><line style="stroke:#181818;stroke-width:0.5;" x1="498.5" x2="587.5" y1="434" y2="434"/><line style="stroke:#181818;stroke-width:0.5;" x1="498.5" x2="587.5" y1="442" y2="442"/></g><!--class MutableMapping--><g id="elem_MutableMapping"><rect codeLine="22" fill="#F1F1F1" height="48" id="MutableMapping" rx="2.5" ry="2.5" style="stroke:#181818;stroke-width:0.5;" width="146" x="457" y="754.5"/><ellipse cx="472" cy="770.5" fill="#A9DCDF" rx="11" ry="11" style="stroke:#181818;stroke-width:1.0;"/><path d="M472.1094,765.8438 L470.9531,770.9219 L473.2813,770.9219 L472.1094,765.8438 Z M470.625,763.6094 L473.6094,763.6094 L476.9688,776 L474.5156,776 L473.75,772.9375 L470.4688,772.9375 L469.7188,776 L467.2813,776 L470.625,763.6094 Z " fill="#000000"/><text fill="#000000" font-family="sans-serif" font-size="14" font-style="italic" lengthAdjust="spacing" textLength="114" x="486" y="775.3467">MutableMapping</text><line style="stroke:#181818;stroke-width:0.5;" x1="458" x2="602" y1="786.5" y2="786.5"/><line style="stroke:#181818;stroke-width:0.5;" x1="458" x2="602" y1="794.5" y2="794.5"/></g><!--class MappingView--><g id="elem_MappingView"><rect codeLine="25" fill="#F1F1F1" height="48" id="MappingView" rx="2.5" ry="2.5" style="stroke:#181818;stroke-width:0.5;" width="123" x="894.5" y="402"/><ellipse cx="909.5" cy="418" fill="#A9DCDF" rx="11" ry="11" style="stroke:#181818;stroke-width:1.0;"/><path d="M909.6094,413.3438 L908.4531,418.4219 L910.7813,418.4219 L909.6094,413.3438 Z M908.125,411.1094 L911.1094,411.1094 L914.4688,423.5 L912.0156,423.5 L911.25,420.4375 L907.9688,420.4375 L907.2188,423.5 L904.7813,423.5 L908.125,411.1094 Z " fill="#000000"/><text fill="#000000" font-family="sans-serif" font-size="14" font-style="italic" lengthAdjust="spacing" textLength="91" x="923.5" y="422.8467">MappingView</text><line style="stroke:#181818;stroke-width:0.5;" x1="895.5" x2="1016.5" y1="434" y2="434"/><line style="stroke:#181818;stroke-width:0.5;" x1="895.5" x2="1016.5" y1="442" y2="442"/></g><!--class ItemsView--><g id="elem_ItemsView"><rect codeLine="26" fill="#F1F1F1" height="48" id="ItemsView" rx="2.5" ry="2.5" style="stroke:#181818;stroke-width:0.5;" width="102" x="783" y="754.5"/><ellipse cx="798" cy="770.5" fill="#A9DCDF" rx="11" ry="11" style="stroke:#181818;stroke-width:1.0;"/><path d="M798.1094,765.8438 L796.9531,770.9219 L799.2813,770.9219 L798.1094,765.8438 Z M796.625,763.6094 L799.6094,763.6094 L802.9688,776 L800.5156,776 L799.75,772.9375 L796.4688,772.9375 L795.7188,776 L793.2813,776 L796.625,763.6094 Z " fill="#000000"/><text fill="#000000" font-family="sans-serif" font-size="14" font-style="italic" lengthAdjust="spacing" textLength="70" x="812" y="775.3467">ItemsView</text><line style="stroke:#181818;stroke-width:0.5;" x1="784" x2="884" y1="786.5" y2="786.5"/><line style="stroke:#181818;stroke-width:0.5;" x1="784" x2="884" y1="794.5" y2="794.5"/></g><!--class KeysView--><g id="elem_KeysView"><rect codeLine="27" fill="#F1F1F1" height="48" id="KeysView" rx="2.5" ry="2.5" style="stroke:#181818;stroke-width:0.5;" width="97" x="920.5" y="754.5"/><ellipse cx="935.5" cy="770.5" fill="#A9DCDF" rx="11" ry="11" style="stroke:#181818;stroke-width:1.0;"/><path d="M935.6094,765.8438 L934.4531,770.9219 L936.7813,770.9219 L935.6094,765.8438 Z M934.125,763.6094 L937.1094,763.6094 L940.4688,776 L938.0156,776 L937.25,772.9375 L933.9688,772.9375 L933.2188,776 L930.7813,776 L934.125,763.6094 Z " fill="#000000"/><text fill="#000000" font-family="sans-serif" font-size="14" font-style="italic" lengthAdjust="spacing" textLength="65" x="949.5" y="775.3467">KeysView</text><line style="stroke:#181818;stroke-width:0.5;" x1="921.5" x2="1016.5" y1="786.5" y2="786.5"/><line style="stroke:#181818;stroke-width:0.5;" x1="921.5" x2="1016.5" y1="794.5" y2="794.5"/></g><!--class ValuesView--><g id="elem_ValuesView"><rect codeLine="28" fill="#F1F1F1" height="48" id="ValuesView" rx="2.5" ry="2.5" style="stroke:#181818;stroke-width:0.5;" width="110" x="1053" y="754.5"/><ellipse cx="1068" cy="770.5" fill="#A9DCDF" rx="11" ry="11" style="stroke:#181818;stroke-width:1.0;"/><path d="M1068.1094,765.8438 L1066.9531,770.9219 L1069.2813,770.9219 L1068.1094,765.8438 Z M1066.625,763.6094 L1069.6094,763.6094 L1072.9688,776 L1070.5156,776 L1069.75,772.9375 L1066.4688,772.9375 L1065.7188,776 L1063.2813,776 L1066.625,763.6094 Z " fill="#000000"/><text fill="#000000" font-family="sans-serif" font-size="14" font-style="italic" lengthAdjust="spacing" textLength="78" x="1082" y="775.3467">ValuesView</text><line style="stroke:#181818;stroke-width:0.5;" x1="1054" x2="1162" y1="786.5" y2="786.5"/><line style="stroke:#181818;stroke-width:0.5;" x1="1054" x2="1162" y1="794.5" y2="794.5"/></g><!--class Awaitable--><g id="elem_Awaitable"><rect codeLine="122" fill="#F1F1F1" height="48" id="Awaitable" rx="2.5" ry="2.5" style="stroke:#181818;stroke-width:0.5;" width="97" x="1421.5" y="15"/><ellipse cx="1436.5" cy="31" fill="#A9DCDF" rx="11" ry="11" style="stroke:#181818;stroke-width:1.0;"/><path d="M1436.6094,26.3438 L1435.4531,31.4219 L1437.7813,31.4219 L1436.6094,26.3438 Z M1435.125,24.1094 L1438.1094,24.1094 L1441.4688,36.5 L1439.0156,36.5 L1438.25,33.4375 L1434.9688,33.4375 L1434.2188,36.5 L1431.7813,36.5 L1435.125,24.1094 Z " fill="#000000"/><text fill="#000000" font-family="sans-serif" font-size="14" font-style="italic" lengthAdjust="spacing" textLength="65" x="1450.5" y="35.8467">Awaitable</text><line style="stroke:#181818;stroke-width:0.5;" x1="1422.5" x2="1517.5" y1="47" y2="47"/><line style="stroke:#181818;stroke-width:0.5;" x1="1422.5" x2="1517.5" y1="55" y2="55"/></g><!--class Coroutine--><g id="elem_Coroutine"><rect codeLine="123" fill="#F1F1F1" height="48" id="Coroutine" rx="2.5" ry="2.5" style="stroke:#181818;stroke-width:0.5;" width="100" x="1420" y="155.5"/><ellipse cx="1435" cy="171.5" fill="#A9DCDF" rx="11" ry="11" style="stroke:#181818;stroke-width:1.0;"/><path d="M1435.1094,166.8438 L1433.9531,171.9219 L1436.2813,171.9219 L1435.1094,166.8438 Z M1433.625,164.6094 L1436.6094,164.6094 L1439.9688,177 L1437.5156,177 L1436.75,173.9375 L1433.4688,173.9375 L1432.7188,177 L1430.2813,177 L1433.625,164.6094 Z " fill="#000000"/><text fill="#000000" font-family="sans-serif" font-size="14" font-style="italic" lengthAdjust="spacing" textLength="68" x="1449" y="176.3467">Coroutine</text><line style="stroke:#181818;stroke-width:0.5;" x1="1421" x2="1519" y1="187.5" y2="187.5"/><line style="stroke:#181818;stroke-width:0.5;" x1="1421" x2="1519" y1="195.5" y2="195.5"/></g><!--class AsyncIterable--><g id="elem_AsyncIterable"><rect codeLine="124" fill="#F1F1F1" height="48" id="AsyncIterable" rx="2.5" ry="2.5" style="stroke:#181818;stroke-width:0.5;" width="124" x="1177" y="15"/><ellipse cx="1192" cy="31" fill="#A9DCDF" rx="11" ry="11" style="stroke:#181818;stroke-width:1.0;"/><path d="M1192.1094,26.3438 L1190.9531,31.4219 L1193.2813,31.4219 L1192.1094,26.3438 Z M1190.625,24.1094 L1193.6094,24.1094 L1196.9688,36.5 L1194.5156,36.5 L1193.75,33.4375 L1190.4688,33.4375 L1189.7188,36.5 L1187.2813,36.5 L1190.625,24.1094 Z " fill="#000000"/><text fill="#000000" font-family="sans-serif" font-size="14" font-style="italic" lengthAdjust="spacing" textLength="92" x="1206" y="35.8467">AsyncIterable</text><line style="stroke:#181818;stroke-width:0.5;" x1="1178" x2="1300" y1="47" y2="47"/><line style="stroke:#181818;stroke-width:0.5;" x1="1178" x2="1300" y1="55" y2="55"/></g><!--class AsyncIterator--><g id="elem_AsyncIterator"><rect codeLine="125" fill="#F1F1F1" height="48" id="AsyncIterator" rx="2.5" ry="2.5" style="stroke:#181818;stroke-width:0.5;" width="122" x="1084" y="155.5"/><ellipse cx="1099" cy="171.5" fill="#A9DCDF" rx="11" ry="11" style="stroke:#181818;stroke-width:1.0;"/><path d="M1099.1094,166.8438 L1097.9531,171.9219 L1100.2813,171.9219 L1099.1094,166.8438 Z M1097.625,164.6094 L1100.6094,164.6094 L1103.9688,177 L1101.5156,177 L1100.75,173.9375 L1097.4688,173.9375 L1096.7188,177 L1094.2813,177 L1097.625,164.6094 Z " fill="#000000"/><text fill="#000000" font-family="sans-serif" font-size="14" font-style="italic" lengthAdjust="spacing" textLength="90" x="1113" y="176.3467">AsyncIterator</text><line style="stroke:#181818;stroke-width:0.5;" x1="1085" x2="1205" y1="187.5" y2="187.5"/><line style="stroke:#181818;stroke-width:0.5;" x1="1085" x2="1205" y1="195.5" y2="195.5"/></g><!--class AsyncGenerator--><g id="elem_AsyncGenerator"><rect codeLine="126" fill="#F1F1F1" height="48" id="AsyncGenerator" rx="2.5" ry="2.5" style="stroke:#181818;stroke-width:0.5;" width="143" x="1241.5" y="155.5"/><ellipse cx="1256.5" cy="171.5" fill="#A9DCDF" rx="11" ry="11" style="stroke:#181818;stroke-width:1.0;"/><path d="M1256.6094,166.8438 L1255.4531,171.9219 L1257.7813,171.9219 L1256.6094,166.8438 Z M1255.125,164.6094 L1258.1094,164.6094 L1261.4688,177 L1259.0156,177 L1258.25,173.9375 L1254.9688,173.9375 L1254.2188,177 L1251.7813,177 L1255.125,164.6094 Z " fill="#000000"/><text fill="#000000" font-family="sans-serif" font-size="14" font-style="italic" lengthAdjust="spacing" textLength="111" x="1270.5" y="176.3467">AsyncGenerator</text><line style="stroke:#181818;stroke-width:0.5;" x1="1242.5" x2="1383.5" y1="187.5" y2="187.5"/><line style="stroke:#181818;stroke-width:0.5;" x1="1242.5" x2="1383.5" y1="195.5" y2="195.5"/></g><!--reverse link Iterable to Iterator--><g id="link_Iterable_Iterator"><path codeLine="35" d="M311.43,76.87 C273.34,100.85 224.63,131.52 190.72,152.86 " fill="none" id="Iterable-backto-Iterator" style="stroke:#181818;stroke-width:1.0;"/><polygon fill="none" points="307.71,70.95,328.36,66.21,315.17,82.79,307.71,70.95" style="stroke:#181818;stroke-width:1.0;"/></g><!--reverse link Iterable to Reversible--><g id="link_Iterable_Reversible"><path codeLine="38" d="M370,91.12 C370,109.87 370,130.52 370,147.04 " fill="none" id="Iterable-backto-Reversible" style="stroke:#181818;stroke-width:1.0;"/><polygon fill="none" points="363,91.08,370,71.08,377,91.08,363,91.08" style="stroke:#181818;stroke-width:1.0;"/></g><!--reverse link Iterator to Generator--><g id="link_Iterator_Generator"><path codeLine="40" d="M127.98,239.01 C114.13,275.84 96.24,323.36 82.02,361.16 " fill="none" id="Iterator-backto-Generator" style="stroke:#181818;stroke-width:1.0;"/><polygon fill="none" points="121.52,236.31,135.12,220.05,134.62,241.24,121.52,236.31" style="stroke:#181818;stroke-width:1.0;"/></g><!--reverse link Sized to Collection--><g id="link_Sized_Collection"><path codeLine="48" d="M729.35,78.05 C702.47,97.85 669.75,121.96 643.1,141.59 " fill="none" id="Sized-backto-Collection" style="stroke:#181818;stroke-width:1.0;"/><polygon fill="none" points="725.38,72.28,745.64,66.05,733.69,83.55,725.38,72.28" style="stroke:#181818;stroke-width:1.0;"/></g><!--reverse link Iterable to Collection--><g id="link_Iterable_Collection"><path codeLine="49" d="M428.8,76.52 C464.32,98.58 509.11,126.4 542.94,147.41 " fill="none" id="Iterable-backto-Collection" style="stroke:#181818;stroke-width:1.0;"/><polygon fill="none" points="424.98,82.39,411.68,65.89,432.37,70.49,424.98,82.39" style="stroke:#181818;stroke-width:1.0;"/></g><!--reverse link Container to Collection--><g id="link_Container_Collection"><path codeLine="50" d="M593,91.13 C593,104.15 593,118.09 593,130.93 " fill="none" id="Container-backto-Collection" style="stroke:#181818;stroke-width:1.0;"/><polygon fill="none" points="586,91.08,593,71.08,600,91.08,586,91.08" style="stroke:#181818;stroke-width:1.0;"/></g><!--reverse link Reversible to Sequence--><g id="link_Reversible_Sequence"><path codeLine="54" d="M370,232.27 C370,264.95 370,307.81 370,344.82 " fill="none" id="Reversible-backto-Sequence" style="stroke:#181818;stroke-width:1.0;"/><polygon fill="none" points="363,231.96,370,211.96,377,231.96,363,231.96" style="stroke:#181818;stroke-width:1.0;"/></g><!--reverse link Collection to Sequence--><g id="link_Collection_Sequence"><path codeLine="55" d="M525.09,214.35 C496.45,231.13 464.4,253.5 441,280 C424.4,298.81 410.72,322.19 399.96,344.64 " fill="none" id="Collection-backto-Sequence" style="stroke:#181818;stroke-width:1.0;"/><polygon fill="none" points="521.96,208.08,542.83,204.4,528.81,220.29,521.96,208.08" style="stroke:#181818;stroke-width:1.0;"/></g><!--reverse link Sequence to MutableSequence--><g id="link_Sequence_MutableSequence"><path codeLine="63" d="M323.2,525.81 C308.8,556.23 292.58,590.46 276.86,623.66 " fill="none" id="Sequence-backto-MutableSequence" style="stroke:#181818;stroke-width:1.0;"/><polygon fill="none" points="317.03,522.49,331.92,507.41,329.68,528.48,317.03,522.49" style="stroke:#181818;stroke-width:1.0;"/></g><!--reverse link Sequence to ByteString--><g id="link_Sequence_ByteString"><path codeLine="80" d="M370,527.49 C370,597.4 370,686.84 370,737.6 " fill="none" id="Sequence-backto-ByteString" style="stroke:#181818;stroke-width:1.0;"/><polygon fill="none" points="363,527.41,370,507.41,377,527.41,363,527.41" style="stroke:#181818;stroke-width:1.0;"/></g><!--reverse link Collection to Set--><g id="link_Collection_Set"><path codeLine="83" d="M620.68,246.86 C628.35,265.24 636.91,285.76 645.42,306.16 " fill="none" id="Collection-backto-Set" style="stroke:#181818;stroke-width:1.0;"/><polygon fill="none" points="614.15,249.38,612.91,228.22,627.07,243.99,614.15,249.38" style="stroke:#181818;stroke-width:1.0;"/></g><!--reverse link Set to MutableSet--><g id="link_Set_MutableSet"><path codeLine="98" d="M694.1,584.18 C693.97,608.36 693.82,633.01 693.69,656.25 " fill="none" id="Set-backto-MutableSet" style="stroke:#181818;stroke-width:1.0;"/><polygon fill="none" points="687.1,583.98,694.22,564.02,701.1,584.06,687.1,583.98" style="stroke:#181818;stroke-width:1.0;"/></g><!--reverse link Collection to Mapping--><g id="link_Collection_Mapping"><path codeLine="111" d="M579.19,248.03 C568.7,299.33 554.9,366.83 547.75,401.78 " fill="none" id="Collection-backto-Mapping" style="stroke:#181818;stroke-width:1.0;"/><polygon fill="none" points="572.38,246.41,583.24,228.22,586.09,249.22,572.38,246.41" style="stroke:#181818;stroke-width:1.0;"/></g><!--reverse link Mapping to MutableMapping--><g id="link_Mapping_MutableMapping"><path codeLine="112" d="M541.39,470.51 C538.6,545.56 532.99,696.82 530.85,754.47 " fill="none" id="Mapping-backto-MutableMapping" style="stroke:#181818;stroke-width:1.0;"/><polygon fill="none" points="534.4,470,542.14,450.27,548.39,470.51,534.4,470" style="stroke:#181818;stroke-width:1.0;"/></g><!--reverse link Sized to MappingView--><g id="link_Sized_MappingView"><path codeLine="113" d="M803.46,89.41 C841.56,173.24 917.47,340.24 945.38,401.64 " fill="none" id="Sized-backto-MappingView" style="stroke:#181818;stroke-width:1.0;"/><polygon fill="none" points="797.08,92.28,795.17,71.18,809.82,86.49,797.08,92.28" style="stroke:#181818;stroke-width:1.0;"/></g><!--reverse link MappingView to ItemsView--><g id="link_MappingView_ItemsView"><path codeLine="114" d="M941.19,469.55 C915.19,544.26 862.17,696.57 842.02,754.47 " fill="none" id="MappingView-backto-ItemsView" style="stroke:#181818;stroke-width:1.0;"/><polygon fill="none" points="934.72,466.86,947.9,450.27,947.94,471.46,934.72,466.86" style="stroke:#181818;stroke-width:1.0;"/></g><!--reverse link Set to ItemsView--><g id="link_Set_ItemsView"><path codeLine="115" d="M752.1,570.97 C779.67,640.49 809.93,716.8 824.76,754.2 " fill="none" id="Set-backto-ItemsView" style="stroke:#181818;stroke-width:1.0;"/><polygon fill="none" points="745.46,573.23,744.59,552.05,758.47,568.06,745.46,573.23" style="stroke:#181818;stroke-width:1.0;"/></g><!--reverse link MappingView to KeysView--><g id="link_MappingView_KeysView"><path codeLine="116" d="M957.61,470.51 C960.4,545.56 966.01,696.82 968.15,754.47 " fill="none" id="MappingView-backto-KeysView" style="stroke:#181818;stroke-width:1.0;"/><polygon fill="none" points="950.61,470.51,956.86,450.27,964.6,470,950.61,470.51" style="stroke:#181818;stroke-width:1.0;"/></g><!--reverse link Set to KeysView--><g id="link_Set_KeysView"><path codeLine="117" d="M756.97,553.68 C760.18,557.29 763.52,560.75 767,564 C815.28,609.09 856.51,577.07 903,624 C939.65,660.99 957.35,721.58 964.66,754.48 " fill="none" id="Set-backto-KeysView" style="stroke:#181818;stroke-width:1.0;"/><polygon fill="none" points="751.48,558.02,744.53,538,762.45,549.32,751.48,558.02" style="stroke:#181818;stroke-width:1.0;"/></g><!--reverse link MappingView to ValuesView--><g id="link_MappingView_ValuesView"><path codeLine="118" d="M974.24,469.07 C1006.57,543.6 1072.85,696.45 1098.01,754.47 " fill="none" id="MappingView-backto-ValuesView" style="stroke:#181818;stroke-width:1.0;"/><polygon fill="none" points="967.63,471.4,966.09,450.27,980.47,465.83,967.63,471.4" style="stroke:#181818;stroke-width:1.0;"/></g><!--reverse link Collection to ValuesView--><g id="link_Collection_ValuesView"><path codeLine="119" d="M661.73,207.51 C696.3,224.03 736.57,248.17 764,280 C852.68,382.91 780.19,468.7 877,564 C930.53,616.69 979.78,573.08 1035,624 C1074.05,660.01 1094.28,721.27 1102.84,754.47 " fill="none" id="Collection-backto-ValuesView" style="stroke:#181818;stroke-width:1.0;"/><polygon fill="none" points="658.55,213.76,643.23,199.12,664.34,201.01,658.55,213.76" style="stroke:#181818;stroke-width:1.0;"/></g><!--reverse link Awaitable to Coroutine--><g id="link_Awaitable_Coroutine"><path codeLine="128" d="M1470,83.29 C1470,107.08 1470,135.65 1470,155.24 " fill="none" id="Awaitable-backto-Coroutine" style="stroke:#181818;stroke-width:1.0;"/><polygon fill="none" points="1463,83.18,1470,63.18,1477,83.18,1463,83.18" style="stroke:#181818;stroke-width:1.0;"/></g><!--reverse link AsyncIterable to AsyncIterator--><g id="link_AsyncIterable_AsyncIterator"><path codeLine="129" d="M1211.82,80.04 C1195.27,104.44 1174.7,134.75 1160.78,155.24 " fill="none" id="AsyncIterable-backto-AsyncIterator" style="stroke:#181818;stroke-width:1.0;"/><polygon fill="none" points="1206.24,75.8,1223.27,63.18,1217.83,83.66,1206.24,75.8" style="stroke:#181818;stroke-width:1.0;"/></g><!--reverse link AsyncIterable to AsyncGenerator--><g id="link_AsyncIterable_AsyncGenerator"><path codeLine="130" d="M1260.97,81.12 C1273.9,105.32 1289.78,135.05 1300.57,155.24 " fill="none" id="AsyncIterable-backto-AsyncGenerator" style="stroke:#181818;stroke-width:1.0;"/><polygon fill="none" points="1254.64,84.12,1251.39,63.18,1266.98,77.52,1254.64,84.12" style="stroke:#181818;stroke-width:1.0;"/></g><!--SRC=[bLTDaziW3BtxL_ZO7lOFT7ffzz1sEhrqP_QQ8ROceUD05kHDqjJ_lSGs8Bx2xYdalIU1a4GKjjMeM8Vjenm6w91BqJ2F2MHSWFBGTwRtR3k0HtuWg0o2abZzXbTGcWUgRo1YsHF_2ptPdWt3x1db3d0FghqsRUlLy3A2w81YlqQyMUIehnU49rHSx9gfw16ppZ2s2BvG2tOytZO8mSMDvwQwXsSEfv0mbthGAVmJBXdqcGqZM7mofszSAjjFxTNgfkl174BsKxlPT8j0RpQDpN59kZUyaTd4bsJSy5Js-T_3WwyDkoXP2pYZjLvb5TUaoFoov5xD2kZf5hCNNvPk5VXeDOZ-mySIYtibJn7T3L93R984Ks3NUvXRenJC0C98RBiKCsnuvscEbVHyU9M4y8MJCdPPELTLjzv0NKYAbAHuFfXhUU8b9EoYvDmqf3d8uNP55UKI5rLbZvWNhC7cILAMHC153sTJG0Jgv2YGGdEiyVCNVQz7_aO3_Lw37eRt6PWR18LlroyfoOYpcRchMnDqLqFobEfikbB6PYrbpBE_l2ifjUwLvSpZK38xocF1tK6-vhtHIs1zK8HpUP6VKB-i5rLTcpmKQ-UYEG3MkX0hpyeTHT2i6Dx005aKSoYyv52HzR3BUjXbjKpqELYg7Ah7RGu-4pNNFTT_95-V3enU3VGrWMzijDhbruMvjYo8JKtIkYseJ8WTKwdIyjq0J1NPg6q2BcsTwAwvJ6EcFINwU_JvllMItxX9x5YvVWOPjHpvoQVp9LcxuMoTCLrjU2XHkz7JYHsIQCb06WT0gC9O_kN4-1mF1H-baYEQmIHGwelet1-IB76Rx6B2ptnJupQpyuxT9l2zaA7Nai1x_my0]--></g></svg>