<?xml version="1.0" encoding="UTF-8" standalone="no"?><svg xmlns="http://www.w3.org/2000/svg" xmlns:xlink="http://www.w3.org/1999/xlink" contentScriptType="application/ecmascript" contentStyleType="text/css" height="851px" preserveAspectRatio="none" style="width:1441px;height:851px;" version="1.1" viewBox="0 0 1441 851" width="1441px" zoomAndPan="magnify"><defs><filter height="300%" id="f18degz42r5iap" width="300%" x="-1" y="-1"><feGaussianBlur result="blurOut" stdDeviation="2.0"/><feColorMatrix in="blurOut" result="blurOut2" type="matrix" values="0 0 0 0 0 0 0 0 0 0 0 0 0 0 0 0 0 0 .4 0"/><feOffset dx="4.0" dy="4.0" in="blurOut2" result="blurOut3"/><feBlend in="SourceGraphic" in2="blurOut3" mode="normal"/></filter></defs><g><!--cluster ##11--><!--cluster ##16--><!--cluster ##20--><!--cluster ##22--><!--cluster ##26--><!--cluster ##53--><!--class Sequence--><rect fill="#FEFECE" filter="url(#f18degz42r5iap)" height="137.6328" id="Sequence" style="stroke: #A80036; stroke-width: 1.5;" width="95" x="315.5" y="345.5"/><ellipse cx="330.5" cy="361.5" fill="#A9DCDF" rx="11" ry="11" style="stroke: #A80036; stroke-width: 1.0;"/><path d="M330.6094,356.8438 L329.4531,361.9219 L331.7813,361.9219 L330.6094,356.8438 Z M329.125,354.6094 L332.1094,354.6094 L335.4688,367 L333.0156,367 L332.25,363.9375 L328.9688,363.9375 L328.2188,367 L325.7813,367 L329.125,354.6094 Z "/><text fill="#000000" font-family="sans-serif" font-size="12" font-style="italic" lengthAdjust="spacingAndGlyphs" textLength="63" x="344.5" y="365.6543">Sequence</text><line style="stroke: #A80036; stroke-width: 1.5;" x1="316.5" x2="409.5" y1="377.5" y2="377.5"/><line style="stroke: #A80036; stroke-width: 1.5;" x1="316.5" x2="409.5" y1="385.5" y2="385.5"/><text fill="#000000" font-family="sans-serif" font-size="11" font-style="italic" lengthAdjust="spacingAndGlyphs" textLength="67" x="321.5" y="399.7104">__getitem__</text><text fill="#000000" font-family="sans-serif" font-size="11" font-style="italic" lengthAdjust="spacingAndGlyphs" textLength="41" x="321.5" y="412.5151">__len__</text><text fill="#000000" font-family="sans-serif" font-size="11" lengthAdjust="spacingAndGlyphs" textLength="72" x="321.5" y="425.3198">__contains__</text><text fill="#000000" font-family="sans-serif" font-size="11" lengthAdjust="spacingAndGlyphs" textLength="43" x="321.5" y="438.1245">__iter__</text><text fill="#000000" font-family="sans-serif" font-size="11" lengthAdjust="spacingAndGlyphs" textLength="75" x="321.5" y="450.9292">__reversed__</text><text fill="#000000" font-family="sans-serif" font-size="11" lengthAdjust="spacingAndGlyphs" textLength="38" x="321.5" y="463.7339">index()</text><text fill="#000000" font-family="sans-serif" font-size="11" lengthAdjust="spacingAndGlyphs" textLength="39" x="321.5" y="476.5386">count()</text><!--class MutableSequence--><rect fill="#FEFECE" filter="url(#f18degz42r5iap)" height="252.875" id="MutableSequence" style="stroke: #A80036; stroke-width: 1.5;" width="145" x="134.5" y="588"/><ellipse cx="149.5" cy="604" fill="#A9DCDF" rx="11" ry="11" style="stroke: #A80036; stroke-width: 1.0;"/><path d="M149.6094,599.3438 L148.4531,604.4219 L150.7813,604.4219 L149.6094,599.3438 Z M148.125,597.1094 L151.1094,597.1094 L154.4688,609.5 L152.0156,609.5 L151.25,606.4375 L147.9688,606.4375 L147.2188,609.5 L144.7813,609.5 L148.125,597.1094 Z "/><text fill="#000000" font-family="sans-serif" font-size="12" font-style="italic" lengthAdjust="spacingAndGlyphs" textLength="113" x="163.5" y="608.1543">MutableSequence</text><line style="stroke: #A80036; stroke-width: 1.5;" x1="135.5" x2="278.5" y1="620" y2="620"/><line style="stroke: #A80036; stroke-width: 1.5;" x1="135.5" x2="278.5" y1="628" y2="628"/><text fill="#000000" font-family="sans-serif" font-size="11" font-style="italic" lengthAdjust="spacingAndGlyphs" textLength="67" x="140.5" y="642.2104">__getitem__</text><text fill="#000000" font-family="sans-serif" font-size="11" font-style="italic" lengthAdjust="spacingAndGlyphs" textLength="66" x="140.5" y="655.0151">__setitem__</text><text fill="#000000" font-family="sans-serif" font-size="11" font-style="italic" lengthAdjust="spacingAndGlyphs" textLength="66" x="140.5" y="667.8198">__delitem__</text><text fill="#000000" font-family="sans-serif" font-size="11" font-style="italic" lengthAdjust="spacingAndGlyphs" textLength="56" x="140.5" y="680.6245">__insert__</text><text fill="#000000" font-family="sans-serif" font-size="11" font-style="italic" lengthAdjust="spacingAndGlyphs" textLength="41" x="140.5" y="693.4292">__len__</text><text fill="#000000" font-family="sans-serif" font-size="11" lengthAdjust="spacingAndGlyphs" textLength="72" x="140.5" y="706.2339">__contains__</text><text fill="#000000" font-family="sans-serif" font-size="11" lengthAdjust="spacingAndGlyphs" textLength="43" x="140.5" y="719.0386">__iter__</text><text fill="#000000" font-family="sans-serif" font-size="11" lengthAdjust="spacingAndGlyphs" textLength="75" x="140.5" y="731.8433">__reversed__</text><text fill="#000000" font-family="sans-serif" font-size="11" lengthAdjust="spacingAndGlyphs" textLength="38" x="140.5" y="744.6479">index()</text><text fill="#000000" font-family="sans-serif" font-size="11" lengthAdjust="spacingAndGlyphs" textLength="39" x="140.5" y="757.4526">count()</text><text fill="#000000" font-family="sans-serif" font-size="11" lengthAdjust="spacingAndGlyphs" textLength="50" x="140.5" y="770.2573">append()</text><text fill="#000000" font-family="sans-serif" font-size="11" lengthAdjust="spacingAndGlyphs" textLength="52" x="140.5" y="783.062">reverse()</text><text fill="#000000" font-family="sans-serif" font-size="11" lengthAdjust="spacingAndGlyphs" textLength="46" x="140.5" y="795.8667">extend()</text><text fill="#000000" font-family="sans-serif" font-size="11" lengthAdjust="spacingAndGlyphs" textLength="29" x="140.5" y="808.6714">pop()</text><text fill="#000000" font-family="sans-serif" font-size="11" lengthAdjust="spacingAndGlyphs" textLength="51" x="140.5" y="821.4761">remove()</text><text fill="#000000" font-family="sans-serif" font-size="11" lengthAdjust="spacingAndGlyphs" textLength="48" x="140.5" y="834.2808">__iadd__</text><!--class ByteString--><rect fill="#FEFECE" filter="url(#f18degz42r5iap)" height="73.6094" id="ByteString" style="stroke: #A80036; stroke-width: 1.5;" width="97" x="314.5" y="677.5"/><ellipse cx="329.5" cy="693.5" fill="#A9DCDF" rx="11" ry="11" style="stroke: #A80036; stroke-width: 1.0;"/><path d="M329.6094,688.8438 L328.4531,693.9219 L330.7813,693.9219 L329.6094,688.8438 Z M328.125,686.6094 L331.1094,686.6094 L334.4688,699 L332.0156,699 L331.25,695.9375 L327.9688,695.9375 L327.2188,699 L324.7813,699 L328.125,686.6094 Z "/><text fill="#000000" font-family="sans-serif" font-size="12" font-style="italic" lengthAdjust="spacingAndGlyphs" textLength="65" x="343.5" y="697.6543">ByteString</text><line style="stroke: #A80036; stroke-width: 1.5;" x1="315.5" x2="410.5" y1="709.5" y2="709.5"/><line style="stroke: #A80036; stroke-width: 1.5;" x1="315.5" x2="410.5" y1="717.5" y2="717.5"/><text fill="#000000" font-family="sans-serif" font-size="11" font-style="italic" lengthAdjust="spacingAndGlyphs" textLength="67" x="320.5" y="731.7104">__getitem__</text><text fill="#000000" font-family="sans-serif" font-size="11" font-style="italic" lengthAdjust="spacingAndGlyphs" textLength="41" x="320.5" y="744.5151">__len__</text><!--class Set--><rect fill="#FEFECE" filter="url(#f18degz42r5iap)" height="227.2656" id="Set" style="stroke: #A80036; stroke-width: 1.5;" width="83" x="487.5" y="301"/><ellipse cx="516" cy="317" fill="#A9DCDF" rx="11" ry="11" style="stroke: #A80036; stroke-width: 1.0;"/><path d="M516.1094,312.3438 L514.9531,317.4219 L517.2813,317.4219 L516.1094,312.3438 Z M514.625,310.1094 L517.6094,310.1094 L520.9688,322.5 L518.5156,322.5 L517.75,319.4375 L514.4688,319.4375 L513.7188,322.5 L511.2813,322.5 L514.625,310.1094 Z "/><text fill="#000000" font-family="sans-serif" font-size="12" font-style="italic" lengthAdjust="spacingAndGlyphs" textLength="21" x="533" y="321.1543">Set</text><line style="stroke: #A80036; stroke-width: 1.5;" x1="488.5" x2="569.5" y1="333" y2="333"/><line style="stroke: #A80036; stroke-width: 1.5;" x1="488.5" x2="569.5" y1="341" y2="341"/><text fill="#000000" font-family="sans-serif" font-size="11" font-style="italic" lengthAdjust="spacingAndGlyphs" textLength="41" x="493.5" y="355.2104">__len__</text><text fill="#000000" font-family="sans-serif" font-size="11" font-style="italic" lengthAdjust="spacingAndGlyphs" textLength="43" x="493.5" y="368.0151">__iter__</text><text fill="#000000" font-family="sans-serif" font-size="11" font-style="italic" lengthAdjust="spacingAndGlyphs" textLength="71" x="493.5" y="380.8198">__contains__</text><text fill="#000000" font-family="sans-serif" font-size="11" lengthAdjust="spacingAndGlyphs" textLength="34" x="493.5" y="393.6245">__le__</text><text fill="#000000" font-family="sans-serif" font-size="11" lengthAdjust="spacingAndGlyphs" textLength="31" x="493.5" y="406.4292">__lt__</text><text fill="#000000" font-family="sans-serif" font-size="11" lengthAdjust="spacingAndGlyphs" textLength="38" x="493.5" y="419.2339">__eq__</text><text fill="#000000" font-family="sans-serif" font-size="11" lengthAdjust="spacingAndGlyphs" textLength="38" x="493.5" y="432.0386">__ne__</text><text fill="#000000" font-family="sans-serif" font-size="11" lengthAdjust="spacingAndGlyphs" textLength="35" x="493.5" y="444.8433">__gt__</text><text fill="#000000" font-family="sans-serif" font-size="11" lengthAdjust="spacingAndGlyphs" textLength="38" x="493.5" y="457.6479">__ge__</text><text fill="#000000" font-family="sans-serif" font-size="11" lengthAdjust="spacingAndGlyphs" textLength="45" x="493.5" y="470.4526">__and__</text><text fill="#000000" font-family="sans-serif" font-size="11" lengthAdjust="spacingAndGlyphs" textLength="36" x="493.5" y="483.2573">__or__</text><text fill="#000000" font-family="sans-serif" font-size="11" lengthAdjust="spacingAndGlyphs" textLength="45" x="493.5" y="496.062">__sub__</text><text fill="#000000" font-family="sans-serif" font-size="11" lengthAdjust="spacingAndGlyphs" textLength="42" x="493.5" y="508.8667">__xor__</text><text fill="#000000" font-family="sans-serif" font-size="11" lengthAdjust="spacingAndGlyphs" textLength="59" x="493.5" y="521.6714">isdisjoint()</text><!--class MutableSet--><rect fill="#FEFECE" filter="url(#f18degz42r5iap)" height="201.6563" id="MutableSet" style="stroke: #A80036; stroke-width: 1.5;" width="103" x="467.5" y="613.5"/><ellipse cx="482.5" cy="629.5" fill="#A9DCDF" rx="11" ry="11" style="stroke: #A80036; stroke-width: 1.0;"/><path d="M482.6094,624.8438 L481.4531,629.9219 L483.7813,629.9219 L482.6094,624.8438 Z M481.125,622.6094 L484.1094,622.6094 L487.4688,635 L485.0156,635 L484.25,631.9375 L480.9688,631.9375 L480.2188,635 L477.7813,635 L481.125,622.6094 Z "/><text fill="#000000" font-family="sans-serif" font-size="12" font-style="italic" lengthAdjust="spacingAndGlyphs" textLength="71" x="496.5" y="633.6543">MutableSet</text><line style="stroke: #A80036; stroke-width: 1.5;" x1="468.5" x2="569.5" y1="645.5" y2="645.5"/><line style="stroke: #A80036; stroke-width: 1.5;" x1="468.5" x2="569.5" y1="653.5" y2="653.5"/><text fill="#000000" font-family="sans-serif" font-size="11" font-style="italic" lengthAdjust="spacingAndGlyphs" textLength="41" x="473.5" y="667.7104">__len__</text><text fill="#000000" font-family="sans-serif" font-size="11" font-style="italic" lengthAdjust="spacingAndGlyphs" textLength="43" x="473.5" y="680.5151">__iter__</text><text fill="#000000" font-family="sans-serif" font-size="11" font-style="italic" lengthAdjust="spacingAndGlyphs" textLength="71" x="473.5" y="693.3198">__contains__</text><text fill="#000000" font-family="sans-serif" font-size="11" font-style="italic" lengthAdjust="spacingAndGlyphs" textLength="29" x="473.5" y="706.1245">add()</text><text fill="#000000" font-family="sans-serif" font-size="11" font-style="italic" lengthAdjust="spacingAndGlyphs" textLength="49" x="473.5" y="718.9292">discard()</text><text fill="#000000" font-family="sans-serif" font-size="11" lengthAdjust="spacingAndGlyphs" textLength="36" x="473.5" y="731.7339">clear()</text><text fill="#000000" font-family="sans-serif" font-size="11" lengthAdjust="spacingAndGlyphs" textLength="29" x="473.5" y="744.5386">pop()</text><text fill="#000000" font-family="sans-serif" font-size="11" lengthAdjust="spacingAndGlyphs" textLength="51" x="473.5" y="757.3433">remove()</text><text fill="#000000" font-family="sans-serif" font-size="11" lengthAdjust="spacingAndGlyphs" textLength="39" x="473.5" y="770.1479">__ior__</text><text fill="#000000" font-family="sans-serif" font-size="11" lengthAdjust="spacingAndGlyphs" textLength="48" x="473.5" y="782.9526">__iand__</text><text fill="#000000" font-family="sans-serif" font-size="11" lengthAdjust="spacingAndGlyphs" textLength="45" x="473.5" y="795.7573">__ixor__</text><text fill="#000000" font-family="sans-serif" font-size="11" lengthAdjust="spacingAndGlyphs" textLength="48" x="473.5" y="808.562">__isub__</text><!--class Mapping--><rect fill="#FEFECE" filter="url(#f18degz42r5iap)" height="48" id="Mapping" style="stroke: #A80036; stroke-width: 1.5;" width="85" x="1077.5" y="390.5"/><ellipse cx="1092.5" cy="406.5" fill="#A9DCDF" rx="11" ry="11" style="stroke: #A80036; stroke-width: 1.0;"/><path d="M1092.6094,401.8438 L1091.4531,406.9219 L1093.7813,406.9219 L1092.6094,401.8438 Z M1091.125,399.6094 L1094.1094,399.6094 L1097.4688,412 L1095.0156,412 L1094.25,408.9375 L1090.9688,408.9375 L1090.2188,412 L1087.7813,412 L1091.125,399.6094 Z "/><text fill="#000000" font-family="sans-serif" font-size="12" font-style="italic" lengthAdjust="spacingAndGlyphs" textLength="53" x="1106.5" y="410.6543">Mapping</text><line style="stroke: #A80036; stroke-width: 1.5;" x1="1078.5" x2="1161.5" y1="422.5" y2="422.5"/><line style="stroke: #A80036; stroke-width: 1.5;" x1="1078.5" x2="1161.5" y1="430.5" y2="430.5"/><!--class MutableMapping--><rect fill="#FEFECE" filter="url(#f18degz42r5iap)" height="48" id="MutableMapping" style="stroke: #A80036; stroke-width: 1.5;" width="135" x="1065.5" y="690.5"/><ellipse cx="1080.5" cy="706.5" fill="#A9DCDF" rx="11" ry="11" style="stroke: #A80036; stroke-width: 1.0;"/><path d="M1080.6094,701.8438 L1079.4531,706.9219 L1081.7813,706.9219 L1080.6094,701.8438 Z M1079.125,699.6094 L1082.1094,699.6094 L1085.4688,712 L1083.0156,712 L1082.25,708.9375 L1078.9688,708.9375 L1078.2188,712 L1075.7813,712 L1079.125,699.6094 Z "/><text fill="#000000" font-family="sans-serif" font-size="12" font-style="italic" lengthAdjust="spacingAndGlyphs" textLength="103" x="1094.5" y="710.6543">MutableMapping</text><line style="stroke: #A80036; stroke-width: 1.5;" x1="1066.5" x2="1199.5" y1="722.5" y2="722.5"/><line style="stroke: #A80036; stroke-width: 1.5;" x1="1066.5" x2="1199.5" y1="730.5" y2="730.5"/><!--class MappingView--><rect fill="#FEFECE" filter="url(#f18degz42r5iap)" height="48" id="MappingView" style="stroke: #A80036; stroke-width: 1.5;" width="114" x="746" y="390.5"/><ellipse cx="761" cy="406.5" fill="#A9DCDF" rx="11" ry="11" style="stroke: #A80036; stroke-width: 1.0;"/><path d="M761.1094,401.8438 L759.9531,406.9219 L762.2813,406.9219 L761.1094,401.8438 Z M759.625,399.6094 L762.6094,399.6094 L765.9688,412 L763.5156,412 L762.75,408.9375 L759.4688,408.9375 L758.7188,412 L756.2813,412 L759.625,399.6094 Z "/><text fill="#000000" font-family="sans-serif" font-size="12" font-style="italic" lengthAdjust="spacingAndGlyphs" textLength="82" x="775" y="410.6543">MappingView</text><line style="stroke: #A80036; stroke-width: 1.5;" x1="747" x2="859" y1="422.5" y2="422.5"/><line style="stroke: #A80036; stroke-width: 1.5;" x1="747" x2="859" y1="430.5" y2="430.5"/><!--class ItemsView--><rect fill="#FEFECE" filter="url(#f18degz42r5iap)" height="48" id="ItemsView" style="stroke: #A80036; stroke-width: 1.5;" width="95" x="651.5" y="690.5"/><ellipse cx="666.5" cy="706.5" fill="#A9DCDF" rx="11" ry="11" style="stroke: #A80036; stroke-width: 1.0;"/><path d="M666.6094,701.8438 L665.4531,706.9219 L667.7813,706.9219 L666.6094,701.8438 Z M665.125,699.6094 L668.1094,699.6094 L671.4688,712 L669.0156,712 L668.25,708.9375 L664.9688,708.9375 L664.2188,712 L661.7813,712 L665.125,699.6094 Z "/><text fill="#000000" font-family="sans-serif" font-size="12" font-style="italic" lengthAdjust="spacingAndGlyphs" textLength="63" x="680.5" y="710.6543">ItemsView</text><line style="stroke: #A80036; stroke-width: 1.5;" x1="652.5" x2="745.5" y1="722.5" y2="722.5"/><line style="stroke: #A80036; stroke-width: 1.5;" x1="652.5" x2="745.5" y1="730.5" y2="730.5"/><!--class KeysView--><rect fill="#FEFECE" filter="url(#f18degz42r5iap)" height="48" id="KeysView" style="stroke: #A80036; stroke-width: 1.5;" width="90" x="782" y="690.5"/><ellipse cx="797" cy="706.5" fill="#A9DCDF" rx="11" ry="11" style="stroke: #A80036; stroke-width: 1.0;"/><path d="M797.1094,701.8438 L795.9531,706.9219 L798.2813,706.9219 L797.1094,701.8438 Z M795.625,699.6094 L798.6094,699.6094 L801.9688,712 L799.5156,712 L798.75,708.9375 L795.4688,708.9375 L794.7188,712 L792.2813,712 L795.625,699.6094 Z "/><text fill="#000000" font-family="sans-serif" font-size="12" font-style="italic" lengthAdjust="spacingAndGlyphs" textLength="58" x="811" y="710.6543">KeysView</text><line style="stroke: #A80036; stroke-width: 1.5;" x1="783" x2="871" y1="722.5" y2="722.5"/><line style="stroke: #A80036; stroke-width: 1.5;" x1="783" x2="871" y1="730.5" y2="730.5"/><!--class ValuesView--><rect fill="#FEFECE" filter="url(#f18degz42r5iap)" height="48" id="ValuesView" style="stroke: #A80036; stroke-width: 1.5;" width="102" x="907" y="690.5"/><ellipse cx="922" cy="706.5" fill="#A9DCDF" rx="11" ry="11" style="stroke: #A80036; stroke-width: 1.0;"/><path d="M922.1094,701.8438 L920.9531,706.9219 L923.2813,706.9219 L922.1094,701.8438 Z M920.625,699.6094 L923.6094,699.6094 L926.9688,712 L924.5156,712 L923.75,708.9375 L920.4688,708.9375 L919.7188,712 L917.2813,712 L920.625,699.6094 Z "/><text fill="#000000" font-family="sans-serif" font-size="12" font-style="italic" lengthAdjust="spacingAndGlyphs" textLength="70" x="936" y="710.6543">ValuesView</text><line style="stroke: #A80036; stroke-width: 1.5;" x1="908" x2="1008" y1="722.5" y2="722.5"/><line style="stroke: #A80036; stroke-width: 1.5;" x1="908" x2="1008" y1="730.5" y2="730.5"/><!--class Awaitable--><rect fill="#FEFECE" filter="url(#f18degz42r5iap)" height="48" id="Awaitable" style="stroke: #A80036; stroke-width: 1.5;" width="93" x="1337.5" y="40.5"/><ellipse cx="1352.5" cy="56.5" fill="#A9DCDF" rx="11" ry="11" style="stroke: #A80036; stroke-width: 1.0;"/><path d="M1352.6094,51.8438 L1351.4531,56.9219 L1353.7813,56.9219 L1352.6094,51.8438 Z M1351.125,49.6094 L1354.1094,49.6094 L1357.4688,62 L1355.0156,62 L1354.25,58.9375 L1350.9688,58.9375 L1350.2188,62 L1347.7813,62 L1351.125,49.6094 Z "/><text fill="#000000" font-family="sans-serif" font-size="12" font-style="italic" lengthAdjust="spacingAndGlyphs" textLength="61" x="1366.5" y="60.6543">Awaitable</text><line style="stroke: #A80036; stroke-width: 1.5;" x1="1338.5" x2="1429.5" y1="72.5" y2="72.5"/><line style="stroke: #A80036; stroke-width: 1.5;" x1="1338.5" x2="1429.5" y1="80.5" y2="80.5"/><!--class Coroutine--><rect fill="#FEFECE" filter="url(#f18degz42r5iap)" height="48" id="Coroutine" style="stroke: #A80036; stroke-width: 1.5;" width="93" x="1337.5" y="174"/><ellipse cx="1352.5" cy="190" fill="#A9DCDF" rx="11" ry="11" style="stroke: #A80036; stroke-width: 1.0;"/><path d="M1352.6094,185.3438 L1351.4531,190.4219 L1353.7813,190.4219 L1352.6094,185.3438 Z M1351.125,183.1094 L1354.1094,183.1094 L1357.4688,195.5 L1355.0156,195.5 L1354.25,192.4375 L1350.9688,192.4375 L1350.2188,195.5 L1347.7813,195.5 L1351.125,183.1094 Z "/><text fill="#000000" font-family="sans-serif" font-size="12" font-style="italic" lengthAdjust="spacingAndGlyphs" textLength="61" x="1366.5" y="194.1543">Coroutine</text><line style="stroke: #A80036; stroke-width: 1.5;" x1="1338.5" x2="1429.5" y1="206" y2="206"/><line style="stroke: #A80036; stroke-width: 1.5;" x1="1338.5" x2="1429.5" y1="214" y2="214"/><!--class AsyncIterable--><rect fill="#FEFECE" filter="url(#f18degz42r5iap)" height="48" id="AsyncIterable" style="stroke: #A80036; stroke-width: 1.5;" width="117" x="1099.5" y="40.5"/><ellipse cx="1114.5" cy="56.5" fill="#A9DCDF" rx="11" ry="11" style="stroke: #A80036; stroke-width: 1.0;"/><path d="M1114.6094,51.8438 L1113.4531,56.9219 L1115.7813,56.9219 L1114.6094,51.8438 Z M1113.125,49.6094 L1116.1094,49.6094 L1119.4688,62 L1117.0156,62 L1116.25,58.9375 L1112.9688,58.9375 L1112.2188,62 L1109.7813,62 L1113.125,49.6094 Z "/><text fill="#000000" font-family="sans-serif" font-size="12" font-style="italic" lengthAdjust="spacingAndGlyphs" textLength="85" x="1128.5" y="60.6543">AsyncIterable</text><line style="stroke: #A80036; stroke-width: 1.5;" x1="1100.5" x2="1215.5" y1="72.5" y2="72.5"/><line style="stroke: #A80036; stroke-width: 1.5;" x1="1100.5" x2="1215.5" y1="80.5" y2="80.5"/><!--class AsyncIterator--><rect fill="#FEFECE" filter="url(#f18degz42r5iap)" height="48" id="AsyncIterator" style="stroke: #A80036; stroke-width: 1.5;" width="116" x="1019" y="174"/><ellipse cx="1034" cy="190" fill="#A9DCDF" rx="11" ry="11" style="stroke: #A80036; stroke-width: 1.0;"/><path d="M1034.1094,185.3438 L1032.9531,190.4219 L1035.2813,190.4219 L1034.1094,185.3438 Z M1032.625,183.1094 L1035.6094,183.1094 L1038.9688,195.5 L1036.5156,195.5 L1035.75,192.4375 L1032.4688,192.4375 L1031.7188,195.5 L1029.2813,195.5 L1032.625,183.1094 Z "/><text fill="#000000" font-family="sans-serif" font-size="12" font-style="italic" lengthAdjust="spacingAndGlyphs" textLength="84" x="1048" y="194.1543">AsyncIterator</text><line style="stroke: #A80036; stroke-width: 1.5;" x1="1020" x2="1134" y1="206" y2="206"/><line style="stroke: #A80036; stroke-width: 1.5;" x1="1020" x2="1134" y1="214" y2="214"/><!--class AsyncGenerator--><rect fill="#FEFECE" filter="url(#f18degz42r5iap)" height="48" id="AsyncGenerator" style="stroke: #A80036; stroke-width: 1.5;" width="132" x="1170" y="174"/><ellipse cx="1185" cy="190" fill="#A9DCDF" rx="11" ry="11" style="stroke: #A80036; stroke-width: 1.0;"/><path d="M1185.1094,185.3438 L1183.9531,190.4219 L1186.2813,190.4219 L1185.1094,185.3438 Z M1183.625,183.1094 L1186.6094,183.1094 L1189.9688,195.5 L1187.5156,195.5 L1186.75,192.4375 L1183.4688,192.4375 L1182.7188,195.5 L1180.2813,195.5 L1183.625,183.1094 Z "/><text fill="#000000" font-family="sans-serif" font-size="12" font-style="italic" lengthAdjust="spacingAndGlyphs" textLength="100" x="1199" y="194.1543">AsyncGenerator</text><line style="stroke: #A80036; stroke-width: 1.5;" x1="1171" x2="1301" y1="206" y2="206"/><line style="stroke: #A80036; stroke-width: 1.5;" x1="1171" x2="1301" y1="214" y2="214"/><!--class Collection--><rect fill="#FEFECE" filter="url(#f18degz42r5iap)" height="86.4141" id="Collection" style="stroke: #A80036; stroke-width: 1.5;" width="93" x="528.5" y="155"/><ellipse cx="543.5" cy="171" fill="#A9DCDF" rx="11" ry="11" style="stroke: #A80036; stroke-width: 1.0;"/><path d="M543.6094,166.3438 L542.4531,171.4219 L544.7813,171.4219 L543.6094,166.3438 Z M542.125,164.1094 L545.1094,164.1094 L548.4688,176.5 L546.0156,176.5 L545.25,173.4375 L541.9688,173.4375 L541.2188,176.5 L538.7813,176.5 L542.125,164.1094 Z "/><text fill="#000000" font-family="sans-serif" font-size="12" font-style="italic" lengthAdjust="spacingAndGlyphs" textLength="61" x="557.5" y="175.1543">Collection</text><line style="stroke: #A80036; stroke-width: 1.5;" x1="529.5" x2="620.5" y1="187" y2="187"/><line style="stroke: #A80036; stroke-width: 1.5;" x1="529.5" x2="620.5" y1="195" y2="195"/><text fill="#000000" font-family="sans-serif" font-size="11" font-style="italic" lengthAdjust="spacingAndGlyphs" textLength="41" x="534.5" y="209.2104">__len__</text><text fill="#000000" font-family="sans-serif" font-size="11" font-style="italic" lengthAdjust="spacingAndGlyphs" textLength="43" x="534.5" y="222.0151">__iter__</text><text fill="#000000" font-family="sans-serif" font-size="11" font-style="italic" lengthAdjust="spacingAndGlyphs" textLength="71" x="534.5" y="234.8198">__contains__</text><!--class Container--><rect fill="#FEFECE" filter="url(#f18degz42r5iap)" height="60.8047" id="Container" style="stroke: #A80036; stroke-width: 1.5;" width="93" x="528.5" y="34"/><ellipse cx="543.5" cy="50" fill="#A9DCDF" rx="11" ry="11" style="stroke: #A80036; stroke-width: 1.0;"/><path d="M543.6094,45.3438 L542.4531,50.4219 L544.7813,50.4219 L543.6094,45.3438 Z M542.125,43.1094 L545.1094,43.1094 L548.4688,55.5 L546.0156,55.5 L545.25,52.4375 L541.9688,52.4375 L541.2188,55.5 L538.7813,55.5 L542.125,43.1094 Z "/><text fill="#000000" font-family="sans-serif" font-size="12" font-style="italic" lengthAdjust="spacingAndGlyphs" textLength="61" x="557.5" y="54.1543">Container</text><line style="stroke: #A80036; stroke-width: 1.5;" x1="529.5" x2="620.5" y1="66" y2="66"/><line style="stroke: #A80036; stroke-width: 1.5;" x1="529.5" x2="620.5" y1="74" y2="74"/><text fill="#000000" font-family="sans-serif" font-size="11" font-style="italic" lengthAdjust="spacingAndGlyphs" textLength="71" x="534.5" y="88.2104">__contains__</text><!--class Hashable--><rect fill="#FEFECE" filter="url(#f18degz42r5iap)" height="60.8047" id="Hashable" style="stroke: #A80036; stroke-width: 1.5;" width="90" x="780" y="34"/><ellipse cx="795" cy="50" fill="#A9DCDF" rx="11" ry="11" style="stroke: #A80036; stroke-width: 1.0;"/><path d="M795.1094,45.3438 L793.9531,50.4219 L796.2813,50.4219 L795.1094,45.3438 Z M793.625,43.1094 L796.6094,43.1094 L799.9688,55.5 L797.5156,55.5 L796.75,52.4375 L793.4688,52.4375 L792.7188,55.5 L790.2813,55.5 L793.625,43.1094 Z "/><text fill="#000000" font-family="sans-serif" font-size="12" font-style="italic" lengthAdjust="spacingAndGlyphs" textLength="58" x="809" y="54.1543">Hashable</text><line style="stroke: #A80036; stroke-width: 1.5;" x1="781" x2="869" y1="66" y2="66"/><line style="stroke: #A80036; stroke-width: 1.5;" x1="781" x2="869" y1="74" y2="74"/><text fill="#000000" font-family="sans-serif" font-size="11" font-style="italic" lengthAdjust="spacingAndGlyphs" textLength="51" x="786" y="88.2104">__hash__</text><!--class Iterable--><rect fill="#FEFECE" filter="url(#f18degz42r5iap)" height="60.8047" id="Iterable" style="stroke: #A80036; stroke-width: 1.5;" width="81" x="322.5" y="34"/><ellipse cx="337.5" cy="50" fill="#A9DCDF" rx="11" ry="11" style="stroke: #A80036; stroke-width: 1.0;"/><path d="M337.6094,45.3438 L336.4531,50.4219 L338.7813,50.4219 L337.6094,45.3438 Z M336.125,43.1094 L339.1094,43.1094 L342.4688,55.5 L340.0156,55.5 L339.25,52.4375 L335.9688,52.4375 L335.2188,55.5 L332.7813,55.5 L336.125,43.1094 Z "/><text fill="#000000" font-family="sans-serif" font-size="12" font-style="italic" lengthAdjust="spacingAndGlyphs" textLength="49" x="351.5" y="54.1543">Iterable</text><line style="stroke: #A80036; stroke-width: 1.5;" x1="323.5" x2="402.5" y1="66" y2="66"/><line style="stroke: #A80036; stroke-width: 1.5;" x1="323.5" x2="402.5" y1="74" y2="74"/><text fill="#000000" font-family="sans-serif" font-size="11" font-style="italic" lengthAdjust="spacingAndGlyphs" textLength="43" x="328.5" y="88.2104">__iter__</text><!--class Iterator--><rect fill="#FEFECE" filter="url(#f18degz42r5iap)" height="73.6094" id="Iterator" style="stroke: #A80036; stroke-width: 1.5;" width="80" x="107" y="161"/><ellipse cx="122" cy="177" fill="#A9DCDF" rx="11" ry="11" style="stroke: #A80036; stroke-width: 1.0;"/><path d="M122.1094,172.3438 L120.9531,177.4219 L123.2813,177.4219 L122.1094,172.3438 Z M120.625,170.1094 L123.6094,170.1094 L126.9688,182.5 L124.5156,182.5 L123.75,179.4375 L120.4688,179.4375 L119.7188,182.5 L117.2813,182.5 L120.625,170.1094 Z "/><text fill="#000000" font-family="sans-serif" font-size="12" font-style="italic" lengthAdjust="spacingAndGlyphs" textLength="48" x="136" y="181.1543">Iterator</text><line style="stroke: #A80036; stroke-width: 1.5;" x1="108" x2="186" y1="193" y2="193"/><line style="stroke: #A80036; stroke-width: 1.5;" x1="108" x2="186" y1="201" y2="201"/><text fill="#000000" font-family="sans-serif" font-size="11" font-style="italic" lengthAdjust="spacingAndGlyphs" textLength="49" x="113" y="215.2104">__next__</text><text fill="#000000" font-family="sans-serif" font-size="11" lengthAdjust="spacingAndGlyphs" textLength="43" x="113" y="228.0151">__iter__</text><!--class Reversible--><rect fill="#FEFECE" filter="url(#f18degz42r5iap)" height="60.8047" id="Reversible" style="stroke: #A80036; stroke-width: 1.5;" width="95" x="315.5" y="167.5"/><ellipse cx="330.5" cy="183.5" fill="#A9DCDF" rx="11" ry="11" style="stroke: #A80036; stroke-width: 1.0;"/><path d="M330.6094,178.8438 L329.4531,183.9219 L331.7813,183.9219 L330.6094,178.8438 Z M329.125,176.6094 L332.1094,176.6094 L335.4688,189 L333.0156,189 L332.25,185.9375 L328.9688,185.9375 L328.2188,189 L325.7813,189 L329.125,176.6094 Z "/><text fill="#000000" font-family="sans-serif" font-size="12" font-style="italic" lengthAdjust="spacingAndGlyphs" textLength="63" x="344.5" y="187.6543">Reversible</text><line style="stroke: #A80036; stroke-width: 1.5;" x1="316.5" x2="409.5" y1="199.5" y2="199.5"/><line style="stroke: #A80036; stroke-width: 1.5;" x1="316.5" x2="409.5" y1="207.5" y2="207.5"/><text fill="#000000" font-family="sans-serif" font-size="11" font-style="italic" lengthAdjust="spacingAndGlyphs" textLength="75" x="321.5" y="221.7104">__reversed__</text><!--class Generator--><rect fill="#FEFECE" filter="url(#f18degz42r5iap)" height="112.0234" id="Generator" style="stroke: #A80036; stroke-width: 1.5;" width="96" x="6" y="358.5"/><ellipse cx="21" cy="374.5" fill="#A9DCDF" rx="11" ry="11" style="stroke: #A80036; stroke-width: 1.0;"/><path d="M21.1094,369.8438 L19.9531,374.9219 L22.2813,374.9219 L21.1094,369.8438 Z M19.625,367.6094 L22.6094,367.6094 L25.9688,380 L23.5156,380 L22.75,376.9375 L19.4688,376.9375 L18.7188,380 L16.2813,380 L19.625,367.6094 Z "/><text fill="#000000" font-family="sans-serif" font-size="12" font-style="italic" lengthAdjust="spacingAndGlyphs" textLength="64" x="35" y="378.6543">Generator</text><line style="stroke: #A80036; stroke-width: 1.5;" x1="7" x2="101" y1="390.5" y2="390.5"/><line style="stroke: #A80036; stroke-width: 1.5;" x1="7" x2="101" y1="398.5" y2="398.5"/><text fill="#000000" font-family="sans-serif" font-size="11" font-style="italic" lengthAdjust="spacingAndGlyphs" textLength="35" x="12" y="412.7104">send()</text><text fill="#000000" font-family="sans-serif" font-size="11" font-style="italic" lengthAdjust="spacingAndGlyphs" textLength="40" x="12" y="425.5151">throw()</text><text fill="#000000" font-family="sans-serif" font-size="11" lengthAdjust="spacingAndGlyphs" textLength="38" x="12" y="438.3198">close()</text><text fill="#000000" font-family="sans-serif" font-size="11" lengthAdjust="spacingAndGlyphs" textLength="43" x="12" y="451.1245">__iter__</text><text fill="#000000" font-family="sans-serif" font-size="11" lengthAdjust="spacingAndGlyphs" textLength="48" x="12" y="463.9292">__next__</text><!--class Sized--><rect fill="#FEFECE" filter="url(#f18degz42r5iap)" height="60.8047" id="Sized" style="stroke: #A80036; stroke-width: 1.5;" width="65" x="679.5" y="34"/><ellipse cx="694.5" cy="50" fill="#A9DCDF" rx="11" ry="11" style="stroke: #A80036; stroke-width: 1.0;"/><path d="M694.6094,45.3438 L693.4531,50.4219 L695.7813,50.4219 L694.6094,45.3438 Z M693.125,43.1094 L696.1094,43.1094 L699.4688,55.5 L697.0156,55.5 L696.25,52.4375 L692.9688,52.4375 L692.2188,55.5 L689.7813,55.5 L693.125,43.1094 Z "/><text fill="#000000" font-family="sans-serif" font-size="12" font-style="italic" lengthAdjust="spacingAndGlyphs" textLength="33" x="708.5" y="54.1543">Sized</text><line style="stroke: #A80036; stroke-width: 1.5;" x1="680.5" x2="743.5" y1="66" y2="66"/><line style="stroke: #A80036; stroke-width: 1.5;" x1="680.5" x2="743.5" y1="74" y2="74"/><text fill="#000000" font-family="sans-serif" font-size="11" font-style="italic" lengthAdjust="spacingAndGlyphs" textLength="41" x="685.5" y="88.2104">__len__</text><!--class Callable--><rect fill="#FEFECE" filter="url(#f18degz42r5iap)" height="60.8047" id="Callable" style="stroke: #A80036; stroke-width: 1.5;" width="81" x="905.5" y="34"/><ellipse cx="920.5" cy="50" fill="#A9DCDF" rx="11" ry="11" style="stroke: #A80036; stroke-width: 1.0;"/><path d="M920.6094,45.3438 L919.4531,50.4219 L921.7813,50.4219 L920.6094,45.3438 Z M919.125,43.1094 L922.1094,43.1094 L925.4688,55.5 L923.0156,55.5 L922.25,52.4375 L918.9688,52.4375 L918.2188,55.5 L915.7813,55.5 L919.125,43.1094 Z "/><text fill="#000000" font-family="sans-serif" font-size="12" font-style="italic" lengthAdjust="spacingAndGlyphs" textLength="49" x="934.5" y="54.1543">Callable</text><line style="stroke: #A80036; stroke-width: 1.5;" x1="906.5" x2="985.5" y1="66" y2="66"/><line style="stroke: #A80036; stroke-width: 1.5;" x1="906.5" x2="985.5" y1="74" y2="74"/><text fill="#000000" font-family="sans-serif" font-size="11" font-style="italic" lengthAdjust="spacingAndGlyphs" textLength="43" x="911.5" y="88.2104">__call__</text><!--link Iterable to Iterator--><path d="M305.25,100.66 C267.92,123.38 220.29,152.38 187.08,172.6 " fill="none" id="Iterable-Iterator" style="stroke: #A80036; stroke-width: 1.0;"/><polygon fill="none" points="301.65,94.66,322.37,90.23,308.93,106.61,301.65,94.66" style="stroke: #A80036; stroke-width: 1.0;"/><!--link Iterable to Reversible--><path d="M363,115.18 C363,132.68 363,151.78 363,167.13 " fill="none" id="Iterable-Reversible" style="stroke: #A80036; stroke-width: 1.0;"/><polygon fill="none" points="356,115.01,363,95.01,370,115.01,356,115.01" style="stroke: #A80036; stroke-width: 1.0;"/><!--link Iterator to Generator--><path d="M123.1,254.12 C109.22,286.14 91.79,326.35 77.9,358.37 " fill="none" id="Iterator-Generator" style="stroke: #A80036; stroke-width: 1.0;"/><polygon fill="none" points="116.85,250.95,131.22,235.39,129.69,256.52,116.85,250.95" style="stroke: #A80036; stroke-width: 1.0;"/><!--link Sized to Collection--><path d="M666.61,109.06 C651.25,123.81 634.14,140.24 618.89,154.87 " fill="none" id="Sized-Collection" style="stroke: #A80036; stroke-width: 1.0;"/><polygon fill="none" points="661.98,103.81,681.25,95.01,671.67,113.91,661.98,103.81" style="stroke: #A80036; stroke-width: 1.0;"/><!--link Iterable to Collection--><path d="M421.16,101.58 C454.89,122.5 496.79,148.49 528.34,168.06 " fill="none" id="Iterable-Collection" style="stroke: #A80036; stroke-width: 1.0;"/><polygon fill="none" points="417.18,107.35,403.88,90.85,424.56,95.45,417.18,107.35" style="stroke: #A80036; stroke-width: 1.0;"/><!--link Container to Collection--><path d="M575,115.14 C575,128.23 575,142.22 575,154.87 " fill="none" id="Container-Collection" style="stroke: #A80036; stroke-width: 1.0;"/><polygon fill="none" points="568,115.01,575,95.01,582,115.01,568,115.01" style="stroke: #A80036; stroke-width: 1.0;"/><!--link Reversible to Sequence--><path d="M363,248.98 C363,277.58 363,313.87 363,345.08 " fill="none" id="Reversible-Sequence" style="stroke: #A80036; stroke-width: 1.0;"/><polygon fill="none" points="356,248.83,363,228.83,370,248.83,356,248.83" style="stroke: #A80036; stroke-width: 1.0;"/><!--link Collection to Sequence--><path d="M510.77,232.09 C490.27,244.48 468.41,259.78 451,277 C430.95,296.83 413.14,321.99 398.87,345.3 " fill="none" id="Collection-Sequence" style="stroke: #A80036; stroke-width: 1.0;"/><polygon fill="none" points="507.46,225.91,528.28,221.98,514.46,238.04,507.46,225.91" style="stroke: #A80036; stroke-width: 1.0;"/><!--link Sequence to MutableSequence--><path d="M317.79,501.86 C303.75,528.69 287.97,558.83 272.82,587.77 " fill="none" id="Sequence-MutableSequence" style="stroke: #A80036; stroke-width: 1.0;"/><polygon fill="none" points="311.73,498.34,327.21,483.87,324.14,504.83,311.73,498.34" style="stroke: #A80036; stroke-width: 1.0;"/><!--link Sequence to ByteString--><path d="M363,504.04 C363,561.89 363,634.38 363,677.14 " fill="none" id="Sequence-ByteString" style="stroke: #A80036; stroke-width: 1.0;"/><polygon fill="none" points="356,503.87,363,483.87,370,503.87,356,503.87" style="stroke: #A80036; stroke-width: 1.0;"/><!--link Collection to Set--><path d="M561.69,261.06 C559.01,273.56 556.11,287.06 553.19,300.69 " fill="none" id="Collection-Set" style="stroke: #A80036; stroke-width: 1.0;"/><polygon fill="none" points="554.93,259.21,565.97,241.12,568.62,262.15,554.93,259.21" style="stroke: #A80036; stroke-width: 1.0;"/><!--link Set to MutableSet--><path d="M524.54,548.44 C523.81,570.26 523.06,592.55 522.36,613.4 " fill="none" id="Set-MutableSet" style="stroke: #A80036; stroke-width: 1.0;"/><polygon fill="none" points="517.55,547.91,525.22,528.16,531.54,548.38,517.55,547.91" style="stroke: #A80036; stroke-width: 1.0;"/><!--link Collection to Mapping--><path d="M641.84,204.27 C751.2,213.91 962.48,237.17 1025,277 C1068.1,304.46 1097.02,359.2 1110.76,390.37 " fill="none" id="Collection-Mapping" style="stroke: #A80036; stroke-width: 1.0;"/><polygon fill="none" points="641.05,211.22,621.72,202.54,642.24,197.27,641.05,211.22" style="stroke: #A80036; stroke-width: 1.0;"/><!--link Mapping to MutableMapping--><path d="M1121.9,459.13 C1124.7,523.19 1129.82,640.49 1131.98,690.23 " fill="none" id="Mapping-MutableMapping" style="stroke: #A80036; stroke-width: 1.0;"/><polygon fill="none" points="1114.9,459.17,1121.02,438.88,1128.89,458.56,1114.9,459.17" style="stroke: #A80036; stroke-width: 1.0;"/><!--link Sized to MappingView--><path d="M724.88,114.76 C744.82,191 782.37,334.6 796.97,390.46 " fill="none" id="Sized-MappingView" style="stroke: #A80036; stroke-width: 1.0;"/><polygon fill="none" points="718.05,116.29,719.76,95.17,731.59,112.75,718.05,116.29" style="stroke: #A80036; stroke-width: 1.0;"/><!--link MappingView to ItemsView--><path d="M788.21,457.87 C765.95,521.65 724.59,640.17 707.12,690.23 " fill="none" id="MappingView-ItemsView" style="stroke: #A80036; stroke-width: 1.0;"/><polygon fill="none" points="781.64,455.46,794.84,438.88,794.86,460.07,781.64,455.46" style="stroke: #A80036; stroke-width: 1.0;"/><!--link Set to ItemsView--><path d="M580.61,505.97 C617.16,570.04 663.51,651.29 685.82,690.4 " fill="none" id="Set-ItemsView" style="stroke: #A80036; stroke-width: 1.0;"/><polygon fill="none" points="574.42,509.24,570.59,488.4,586.58,502.3,574.42,509.24" style="stroke: #A80036; stroke-width: 1.0;"/><!--link MappingView to KeysView--><path d="M806.51,459.13 C811.67,523.19 821.12,640.49 825.13,690.23 " fill="none" id="MappingView-KeysView" style="stroke: #A80036; stroke-width: 1.0;"/><polygon fill="none" points="799.51,459.38,804.88,438.88,813.47,458.26,799.51,459.38" style="stroke: #A80036; stroke-width: 1.0;"/><!--link Set to KeysView--><path d="M584.02,482.29 C599.42,498.53 616.93,514.95 635,528 C686.27,565.01 718.63,543.96 764,588 C793.74,616.86 811.76,662.74 820.52,690.3 " fill="none" id="Set-KeysView" style="stroke: #A80036; stroke-width: 1.0;"/><polygon fill="none" points="578.85,487.01,570.51,467.53,589.17,477.56,578.85,487.01" style="stroke: #A80036; stroke-width: 1.0;"/><!--link MappingView to ValuesView--><path d="M824.4,456.64 C857.41,520.11 919.69,639.84 945.89,690.23 " fill="none" id="MappingView-ValuesView" style="stroke: #A80036; stroke-width: 1.0;"/><polygon fill="none" points="818.18,459.86,815.16,438.88,830.6,453.4,818.18,459.86" style="stroke: #A80036; stroke-width: 1.0;"/><!--link Collection to ValuesView--><path d="M588.82,260.99 C608.19,334.26 650.24,455.38 729,528 C785.14,579.76 832.36,537.91 890,588 C921.98,615.8 941.58,662.46 951.07,690.37 " fill="none" id="Collection-ValuesView" style="stroke: #A80036; stroke-width: 1.0;"/><polygon fill="none" points="581.94,262.33,583.84,241.23,595.51,258.91,581.94,262.33" style="stroke: #A80036; stroke-width: 1.0;"/><!--link Awaitable to Coroutine--><path d="M1384,109.01 C1384,130.55 1384,155.7 1384,173.58 " fill="none" id="Awaitable-Coroutine" style="stroke: #A80036; stroke-width: 1.0;"/><polygon fill="none" points="1377,108.71,1384,88.71,1391,108.71,1377,108.71" style="stroke: #A80036; stroke-width: 1.0;"/><!--link AsyncIterable to AsyncIterator--><path d="M1133.06,106 C1119.4,128.17 1102.96,154.86 1091.42,173.58 " fill="none" id="AsyncIterable-AsyncIterator" style="stroke: #A80036; stroke-width: 1.0;"/><polygon fill="none" points="1127.26,102.06,1143.71,88.71,1139.18,109.41,1127.26,102.06" style="stroke: #A80036; stroke-width: 1.0;"/><!--link AsyncIterable to AsyncGenerator--><path d="M1182.02,106 C1195.17,128.17 1211,154.86 1222.11,173.58 " fill="none" id="AsyncIterable-AsyncGenerator" style="stroke: #A80036; stroke-width: 1.0;"/><polygon fill="none" points="1175.95,109.48,1171.77,88.71,1187.99,102.34,1175.95,109.48" style="stroke: #A80036; stroke-width: 1.0;"/><!--
@startuml
abstract Collection
abstract Container
abstract Hashable
abstract Iterable
abstract Iterator
abstract Reversible
abstract Generator
abstract Sized
abstract Callable
together {
  abstract Sequence
  abstract MutableSequence
  abstract ByteString
}
together {
  abstract Set
  abstract MutableSet
}
together {
  together {
    abstract Mapping
    abstract MutableMapping
  }
  together {
    abstract MappingView
    abstract ItemsView
    abstract KeysView
    abstract ValuesView
  }
}

Container : {abstract}{method} __contains__
Hashable : {abstract}{method} __hash__
Iterable : {abstract}{method} __iter__
Iterable <|- - Iterator
Iterator : {abstract}{method} __next__
Iterator : {method} __iter__
Iterable <|- - Reversible
Reversible : {abstract}{method} __reversed__
Iterator <|- - Generator
Generator : {abstract} send()
Generator : {abstract} throw()
Generator : close()
Generator : {method} __iter__
Generator : {method} __next__
Sized : {abstract}{method} __len__
Callable : {abstract}{method} __call__
Sized <|- - Collection
Iterable <|- - Collection
Container <|- - Collection
Collection : {abstract}{method} __len__
Collection : {abstract}{method} __iter__
Collection : {abstract}{method} __contains__
Reversible <|- - Sequence
Collection <|- - Sequence
Sequence : {abstract}{method} __getitem__
Sequence : {abstract}{method} __len__
Sequence : {method} __contains__
Sequence : {method} __iter__
Sequence : {method} __reversed__
Sequence : index()
Sequence : count()
Sequence <|- - MutableSequence
MutableSequence : {abstract}{method} __getitem__
MutableSequence : {abstract}{method} __setitem__
MutableSequence : {abstract}{method} __delitem__
MutableSequence : {abstract}{method} __insert__
MutableSequence : {abstract}{method} __len__
MutableSequence : {method} __contains__
MutableSequence : {method} __iter__
MutableSequence : {method} __reversed__
MutableSequence : index()
MutableSequence : count()
MutableSequence : append()
MutableSequence : reverse()
MutableSequence : extend()
MutableSequence : pop()
MutableSequence : remove()
MutableSequence : {method} __iadd__
Sequence <|- - ByteString
ByteString : {abstract}{method} __getitem__
ByteString : {abstract}{method} __len__
Collection <|- - Set
Set : {abstract}{method} __len__
Set : {abstract}{method} __iter__
Set : {abstract}{method} __contains__
Set : {method} __le__
Set : {method} __lt__
Set : {method} __eq__
Set : {method} __ne__
Set : {method} __gt__
Set : {method} __ge__
Set : {method} __and__
Set : {method} __or__
Set : {method} __sub__
Set : {method} __xor__
Set : isdisjoint()
Set <|- - MutableSet
MutableSet : {abstract}{method} __len__
MutableSet : {abstract}{method} __iter__
MutableSet : {abstract}{method} __contains__
MutableSet : {abstract}{method} add()
MutableSet : {abstract}{method} discard()
MutableSet : {method} clear()
MutableSet : {method} pop()
MutableSet : {method} remove()
MutableSet : {method} __ior__
MutableSet : {method} __iand__
MutableSet : {method} __ixor__
MutableSet : {method} __isub__
Collection <|- - Mapping
Mapping <|- - MutableMapping
Sized <|- - MappingView
MappingView <|- - ItemsView
Set <|- - ItemsView
MappingView <|- - KeysView
Set <|- - KeysView
MappingView <|- - ValuesView
Collection <|- - ValuesView

together {
  abstract Awaitable
  abstract Coroutine
  abstract AsyncIterable
  abstract AsyncIterator
  abstract AsyncGenerator
}
Awaitable <|- - Coroutine
AsyncIterable <|- - AsyncIterator
AsyncIterable <|- - AsyncGenerator






@enduml

PlantUML version 1.2017.16(Sun Sep 03 12:53:37 CEST 2017)
(GPL source distribution)
Java Runtime: OpenJDK Runtime Environment
JVM: OpenJDK 64-Bit Server VM
Java Version: 11.0.10+9
Operating System: Linux
OS Version: 5.4.0-66-generic
Default Encoding: UTF-8
Language: es
Country: ES
--></g></svg>